<!--?xml version="1.0" encoding="utf-8"?-->
<!-- Generator: Adobe Illustrator 18.0.0, SVG Export Plug-In . SVG Version: 6.00 Build 0)  -->

<svg version="1.1" id="_x32_" xmlns="http://www.w3.org/2000/svg" xmlns:xlink="http://www.w3.org/1999/xlink" x="0px" y="0px" viewBox="0 0 512 512" style="width: 256px; height: 256px; opacity: 1;" xml:space="preserve">
<style type="text/css">
	.st0{fill:#4B4B4B;}
</style>
<g>
	<path class="st0" d="M256,0C114.615,0,0,114.615,0,256s114.615,256,256,256s256-114.615,256-256S397.385,0,256,0z M256,86.069
		c28.463,0,51.538,23.074,51.538,51.538c0,28.464-23.074,51.538-51.538,51.538c-28.463,0-51.538-23.074-51.538-51.538
		C204.462,109.143,227.537,86.069,256,86.069z M310.491,425.931H201.51v-43.593h35.667V276.329H215.38v-43.593h65.389v3.963v39.63
		v106.009h29.722V425.931z" style="fill: rgb(245, 245, 245);"></path>
</g>
</svg>
