<?xml version="1.0" standalone="no"?>
<!DOCTYPE svg PUBLIC "-//W3C//DTD SVG 20010904//EN" "http://www.w3.org/TR/2001/REC-SVG-20010904/DTD/svg10.dtd">
<svg xmlns="http://www.w3.org/2000/svg" version="1.0" width="2592" height="1944" viewBox="0 0 2592.000000 1944.000000" preserveAspectRatio="xMidYMid meet">

<g transform="translate(0.000000,1944.000000) scale(0.100000,-0.100000)" fill="#000000" stroke="none">
<path d="M14500 19402 c-9 -4 -60 -41 -115 -83 -94 -72 -196 -172 -275 -270 -37 -46 -56 -66 -179 -194 -130 -134 -352 -411 -372 -462 -5 -13 -13 -23 -18 -23 -9 0 -151 -190 -281 -376 -41 -59 -120 -171 -175 -248 -153 -215 -469 -687 -612 -914 -43 -67 -102 -160 -132 -205 -29 -45 -71 -114 -93 -155 -21 -40 -62 -112 -92 -160 -29 -48 -119 -199 -201 -337 -82 -137 -181 -304 -221 -371 -40 -66 -81 -134 -91 -152 -10 -17 -59 -100 -109 -184 -50 -84 -124 -211 -164 -283 -40 -71 -83 -146 -96 -166 -13 -21 -59 -106 -102 -191 -119 -231 -306 -588 -380 -723 -167 -306 -259 -501 -305 -645 -46 -145 -77 -275 -77 -326 0 -15 -43 -115 -96 -223 -129 -263 -169 -354 -248 -561 -94 -246 -112 -286 -236 -525 -37 -71 -108 -209 -158 -305 -89 -173 -221 -410 -232 -420 -14 -11 -123 -174 -179 -267 -74 -124 -190 -356 -259 -521 -177 -420 -170 -406 -269 -554 -69 -104 -153 -206 -291 -353 -90 -96 -183 -211 -251 -312 -23 -33 -76 -100 -119 -148 -174 -197 -285 -345 -391 -525 -18 -30 -55 -93 -83 -140 -27 -47 -62 -107 -78 -135 -15 -27 -48 -88 -74 -135 -122 -221 -292 -485 -370 -574 -93 -106 -291 -266 -471 -381 -52 -33 -112 -77 -134 -99 -40 -39 -91 -126 -109 -187 -6 -19 -18 -52 -26 -74 -21 -57 -20 -216 2 -277 42 -117 127 -190 367 -317 172 -91 279 -135 525 -216 273 -89 304 -101 710 -285 509 -231 601 -267 1118 -439 643 -214 834 -280 952 -326 52 -20 131 -50 175 -65 44 -16 179 -65 300 -110 254 -95 848 -293 1045 -349 154 -44 485 -146 527 -162 27 -10 162 -51 428 -129 512 -150 838 -259 1305 -438 332 -127 915 -362 1045 -421 39 -18 102 -45 141 -61 39 -16 179 -81 310 -145 324 -158 544 -254 705 -308 160 -54 200 -63 228 -48 16 9 21 9 21 -2 0 -17 48 -33 145 -47 44 -6 94 -15 110 -20 17 -5 91 -14 165 -20 161 -14 317 -40 710 -119 162 -32 331 -64 375 -71 83 -11 384 -82 537 -125 48 -14 154 -57 235 -96 81 -40 213 -101 293 -136 134 -60 198 -86 370 -148 322 -116 691 -263 885 -352 165 -76 332 -147 380 -163 22 -7 45 -16 50 -20 49 -37 596 -168 706 -170 45 0 165 -36 279 -82 47 -19 132 -52 190 -73 58 -21 150 -57 205 -80 55 -23 159 -57 230 -74 72 -18 164 -42 205 -53 41 -12 94 -22 117 -22 24 -1 43 -5 43 -10 0 -4 9 -6 20 -3 11 3 40 -1 64 -8 34 -11 120 -12 388 -9 188 3 353 5 366 5 13 -1 37 5 55 12 18 7 61 13 97 12 56 -2 108 6 216 31 16 3 58 8 94 10 58 2 73 -1 138 -34 52 -25 76 -32 81 -24 5 8 11 5 21 -8 8 -11 20 -20 26 -20 7 0 10 -8 7 -20 -4 -14 0 -20 10 -20 8 0 17 -3 19 -8 8 -19 137 -104 173 -113 22 -6 60 -20 85 -31 55 -26 86 -30 99 -15 5 7 10 14 10 17 2 21 25 70 33 70 5 0 6 9 3 20 -4 14 -2 20 8 20 7 0 19 11 25 25 9 20 9 23 -3 19 -9 -4 -13 1 -12 15 2 25 6 26 37 4 14 -10 34 -19 45 -21 11 -1 24 -7 29 -12 13 -13 46 18 46 43 0 11 -5 37 -12 59 -10 33 -9 41 5 55 13 13 19 14 31 3 11 -8 16 -9 16 -1 0 6 -4 11 -10 11 -5 0 -10 9 -10 20 0 12 -7 20 -16 20 -12 0 -15 6 -11 21 3 12 2 29 -3 38 -5 9 -11 28 -14 43 -4 18 -11 25 -20 22 -15 -6 -28 30 -16 43 9 8 -13 45 -25 43 -4 -1 -13 9 -19 22 -6 13 -18 23 -26 23 -8 0 -18 8 -23 19 -5 13 -14 17 -31 12 -15 -4 -28 0 -36 9 -14 17 -40 20 -40 5 0 -5 -6 -7 -12 -5 -16 6 -41 -13 -56 -42 -11 -19 -15 -20 -44 -11 -50 17 -81 31 -99 45 -13 11 -18 11 -29 -2 -18 -21 -29 -19 -23 5 4 14 0 20 -10 20 -9 0 -19 5 -23 12 -5 7 -3 8 5 3 12 -7 -15 43 -29 55 -4 3 -14 16 -23 30 -14 20 -17 21 -17 7 0 -10 -4 -16 -9 -13 -5 3 -8 16 -8 30 0 32 -37 66 -70 66 -27 0 -27 0 11 -26 27 -19 35 -29 25 -34 -15 -10 -58 19 -60 40 -1 8 -1 24 0 36 1 11 -7 29 -19 39 -18 16 -20 17 -14 2 9 -25 -11 -21 -29 6 -27 37 -78 92 -88 92 -6 0 -13 6 -17 12 -9 15 -113 20 -155 8 -22 -6 -33 -3 -50 13 -19 18 -24 19 -41 6 -14 -10 -23 -11 -32 -3 -7 6 -18 8 -24 4 -6 -4 -11 -1 -10 6 3 21 -11 59 -21 59 -5 0 -19 10 -31 22 -22 22 -53 35 -42 17 3 -5 -9 -9 -26 -9 -18 0 -33 6 -36 15 -4 8 -12 15 -20 15 -8 0 -14 5 -14 10 0 6 -9 10 -20 10 -11 0 -20 5 -20 11 0 6 -8 8 -18 5 -12 -4 -21 1 -27 16 -9 19 -70 58 -152 97 -11 5 -24 15 -28 21 -4 6 -24 22 -46 36 -22 13 -56 40 -76 59 -32 31 -36 39 -34 77 9 148 15 126 -76 318 -27 56 -109 158 -195 241 -26 25 -48 50 -48 55 0 5 -10 16 -21 24 -55 38 -68 52 -63 65 7 18 -88 113 -140 140 -22 11 -53 32 -70 47 -17 16 -33 28 -36 28 -3 0 -5 18 -5 41 1 41 -8 58 -20 39 -3 -5 -10 -10 -16 -10 -5 0 -1 8 9 18 9 11 20 17 24 15 5 -2 4 7 -1 20 -6 15 -6 40 1 68 6 24 10 56 9 72 -1 15 3 27 8 27 6 0 11 12 11 27 2 86 4 103 11 103 14 0 16 40 2 51 -10 9 -11 14 -2 19 6 5 8 13 4 21 -12 18 -14 68 -4 75 5 3 9 -5 9 -18 1 -21 2 -21 11 -5 9 14 7 22 -8 32 -10 8 -21 15 -25 15 -5 0 -8 4 -8 10 0 5 8 6 18 3 15 -6 15 -5 3 10 -8 10 -9 17 -3 17 6 0 14 -4 17 -10 9 -14 32 10 30 32 -1 10 -4 21 -8 24 -4 4 1 19 10 33 9 15 17 47 17 73 1 27 4 48 9 48 4 0 7 5 7 11 0 5 -4 7 -10 4 -16 -10 -12 7 5 19 10 7 15 27 15 56 0 91 1 103 10 120 6 10 7 25 4 33 -3 8 -1 18 4 21 5 3 6 23 2 48 -5 24 -5 45 -1 48 10 6 2 80 -8 80 -4 0 -8 17 -8 38 0 20 -4 46 -8 56 -6 15 -5 17 5 11 10 -6 12 -2 7 16 -4 13 -7 29 -7 34 0 6 -5 3 -11 -5 -8 -12 -9 -9 -5 13 5 20 3 27 -9 27 -8 0 -15 5 -15 10 0 6 5 10 12 10 13 0 2 14 -13 16 -5 1 -12 2 -16 3 -4 0 3 8 15 17 26 18 29 46 7 64 -13 11 -15 10 -9 -6 4 -14 1 -13 -15 6 -11 14 -21 28 -21 32 0 14 22 19 35 8 10 -8 15 -9 15 -2 0 6 -4 14 -10 17 -5 3 -10 11 -10 16 0 6 5 7 11 3 16 -10 0 38 -17 52 -8 6 -14 20 -13 30 0 18 1 18 9 -1 5 -11 9 -14 9 -7 1 7 -5 27 -12 45 -8 18 -14 36 -15 41 0 5 -6 12 -13 17 -10 6 -9 12 5 28 14 15 15 23 6 40 -6 12 -8 27 -4 33 5 7 2 9 -9 5 -16 -6 -47 25 -47 48 0 5 5 3 10 -5 7 -12 12 -12 22 -2 9 9 9 15 0 24 -15 15 -16 32 -2 23 11 -7 3 68 -10 95 -4 8 -6 27 -4 42 1 15 0 27 -4 27 -29 -4 -34 2 -17 21 14 16 15 24 6 51 -6 18 -11 44 -11 60 0 15 -7 35 -16 44 -10 9 -14 26 -11 40 2 16 -3 33 -14 47 -23 26 -24 42 -3 34 13 -5 14 -2 9 11 -5 10 -8 29 -8 42 1 15 -2 19 -7 12 -13 -23 -20 15 -9 54 6 20 8 39 5 43 -3 3 -6 -3 -6 -13 0 -14 -3 -16 -12 -7 -8 8 -8 15 2 27 10 13 9 15 -8 15 -19 0 -31 16 -38 53 -3 11 2 17 16 17 24 0 26 13 5 34 -8 8 -12 21 -9 29 3 8 1 18 -5 21 -6 4 -8 13 -4 21 3 8 0 15 -6 15 -6 0 -8 6 -5 14 3 8 0 17 -6 21 -8 5 -8 10 0 20 7 8 7 15 1 19 -5 4 -12 -3 -16 -14 -9 -29 -27 -25 -19 5 4 15 1 32 -6 40 -10 12 -9 15 4 15 9 0 16 5 16 10 0 6 -9 10 -21 10 -12 0 -17 4 -14 11 4 6 13 8 21 5 7 -3 16 -1 19 4 4 6 1 10 -5 10 -6 0 -8 14 -4 38 5 34 3 40 -20 55 -14 10 -26 23 -26 30 0 8 3 8 9 -2 5 -7 13 -11 19 -7 14 9 3 46 -15 46 -8 0 -11 -4 -8 -10 3 -5 2 -10 -3 -10 -5 0 -8 27 -6 60 2 35 0 60 -6 60 -6 0 -8 16 -4 40 4 27 3 40 -5 40 -6 0 -11 13 -11 28 0 16 -9 39 -20 52 -21 24 -27 46 -10 35 17 -10 11 25 -9 53 -11 17 -18 44 -18 70 0 45 -15 73 -27 53 -4 -6 -2 -11 3 -11 6 0 11 -4 11 -10 0 -19 -25 -9 -48 21 -27 33 -26 62 0 35 24 -24 28 -20 16 14 -5 17 -8 42 -5 56 2 13 1 27 -3 29 -5 3 -11 23 -15 46 -4 22 -13 43 -21 46 -9 3 -13 14 -9 27 2 11 2 15 -1 8 -3 -6 -10 -9 -15 -6 -6 3 -5 11 2 20 9 11 8 18 -5 33 -9 10 -14 25 -11 33 6 15 -20 113 -36 133 -4 6 -10 27 -14 48 -4 20 -11 37 -17 37 -5 0 -7 4 -4 8 3 5 -1 20 -8 33 -7 14 -16 37 -20 52 -3 15 -13 27 -22 27 -10 0 -14 8 -12 27 2 19 -2 28 -12 28 -9 0 -14 9 -13 22 2 16 -2 21 -12 17 -8 -4 -15 -1 -15 5 0 6 5 11 10 11 6 0 10 9 10 20 0 21 -15 27 -25 10 -4 -6 -11 -8 -16 -4 -6 4 -4 13 6 24 15 16 14 20 -7 53 -13 20 -29 36 -37 37 -11 0 -11 4 3 18 15 18 15 20 -14 42 -16 13 -30 27 -30 33 0 5 7 4 15 -3 8 -7 15 -8 15 -4 0 5 -9 15 -21 22 -16 10 -18 16 -9 27 6 7 7 15 3 17 -16 6 -52 78 -47 92 5 14 -46 137 -70 166 -6 8 -13 29 -15 45 -1 17 -14 47 -28 67 -14 20 -22 41 -19 46 3 5 0 15 -8 21 -11 9 -15 9 -20 -1 -3 -7 -4 -1 -1 15 3 16 1 27 -5 27 -6 0 -9 8 -6 18 4 10 -2 26 -12 38 -10 10 -23 38 -30 62 -10 33 -18 42 -35 42 -18 0 -19 2 -7 10 12 7 12 12 2 22 -6 6 -12 18 -12 25 0 8 -13 42 -29 76 -16 34 -32 72 -35 85 -4 12 -12 22 -18 22 -6 0 -9 2 -6 6 3 3 -7 32 -23 65 -16 32 -29 65 -29 72 0 6 -17 44 -37 82 -63 122 -73 144 -73 155 0 6 -14 23 -31 37 -23 20 -27 28 -17 34 10 7 11 12 1 26 -7 10 -21 34 -31 53 -10 19 -23 44 -29 55 -17 30 -39 84 -58 140 -9 28 -28 62 -41 76 -14 15 -21 28 -15 30 6 2 8 14 4 27 -3 13 -11 21 -17 19 -8 -3 -12 8 -12 31 0 20 -5 37 -12 40 -7 2 -12 12 -12 22 0 10 -4 22 -10 25 -5 3 -10 17 -10 31 0 13 -4 24 -10 24 -5 0 -10 5 -10 11 0 22 -43 108 -51 103 -5 -3 -9 -2 -7 3 4 15 -14 73 -22 73 -5 0 -12 10 -15 23 -7 24 -57 129 -65 137 -10 10 -30 50 -30 60 0 6 -16 32 -35 57 -19 25 -32 49 -29 54 5 9 -56 132 -68 137 -5 2 -8 12 -8 22 0 9 -7 23 -15 30 -8 7 -15 21 -15 32 0 11 -13 32 -28 48 -16 15 -37 49 -47 76 -10 26 -25 56 -34 66 -16 18 -16 18 -23 -4 -5 -16 -6 -11 -4 14 6 49 -13 90 -38 82 -16 -5 -18 -2 -12 20 9 35 -1 50 -19 32 -15 -15 -55 -11 -55 5 0 5 9 18 19 28 19 19 19 20 1 44 -14 18 -16 27 -8 35 8 8 4 14 -18 22 -19 8 -24 14 -16 19 16 10 -46 150 -66 151 -8 0 -12 9 -11 23 4 27 -18 70 -32 62 -5 -4 -9 -2 -9 4 0 5 4 12 10 16 11 7 3 30 -21 65 -9 14 -20 42 -24 63 -3 20 -10 37 -16 37 -6 0 -8 4 -4 9 9 15 -15 58 -41 72 -13 7 -24 17 -24 23 0 6 5 5 12 -2 19 -19 33 -14 15 6 -9 10 -21 41 -27 70 -7 29 -16 52 -21 52 -5 0 -9 9 -9 19 0 11 -4 23 -10 26 -5 3 -10 15 -10 27 0 11 -7 34 -16 51 -30 58 -34 67 -34 80 0 7 -16 37 -35 67 -19 30 -35 60 -35 65 0 6 5 3 10 -5 13 -21 12 -6 -2 25 -6 14 -15 25 -21 25 -5 0 -6 7 -3 16 3 8 -3 24 -14 36 -10 11 -23 39 -29 62 -9 41 -24 87 -44 136 -5 14 -11 36 -13 50 -2 14 -8 26 -14 28 -5 2 -8 8 -5 13 3 5 0 19 -7 31 -7 13 -11 29 -10 36 2 6 -2 12 -8 12 -5 0 -10 9 -10 19 0 11 -4 22 -9 26 -5 3 -12 19 -16 36 -4 17 -13 33 -21 36 -9 3 -12 13 -8 29 4 15 2 24 -5 24 -23 0 -39 24 -28 41 12 19 -5 75 -21 72 -6 -2 -9 3 -6 11 3 8 1 17 -5 21 -6 3 -11 19 -11 36 0 16 -4 29 -10 29 -5 0 -10 -5 -10 -12 0 -6 -2 -9 -5 -6 -3 3 -1 17 4 32 9 21 8 26 -4 26 -8 0 -15 8 -16 18 -1 50 -8 90 -18 117 -7 17 -13 32 -14 35 0 3 -10 13 -21 22 -17 14 -18 19 -7 27 9 6 10 11 2 15 -6 4 -9 11 -6 16 3 5 1 17 -4 27 -6 10 -18 36 -27 58 -10 22 -23 47 -29 55 -6 8 -17 31 -25 50 -25 70 -58 136 -74 149 -9 7 -16 21 -16 30 0 22 -42 121 -52 121 -4 0 -8 7 -8 16 0 9 -11 37 -24 63 -14 25 -44 84 -67 131 -23 47 -50 96 -59 110 -10 14 -29 49 -44 78 -14 28 -31 52 -37 52 -5 0 -8 4 -4 9 3 5 -1 15 -8 23 -7 7 -19 28 -25 47 -16 46 -78 155 -97 171 -8 7 -15 19 -15 26 0 8 -4 14 -9 14 -5 0 -7 9 -4 20 3 11 1 20 -4 20 -6 0 -18 21 -28 48 -10 26 -28 67 -40 92 -12 25 -33 68 -46 95 -13 28 -26 52 -29 55 -3 3 -5 10 -6 15 0 10 -17 50 -60 145 -55 119 -64 138 -96 210 -19 41 -43 95 -54 119 -10 25 -30 56 -44 70 -18 18 -21 26 -11 29 11 4 9 9 -7 21 -14 11 -22 31 -25 61 -5 43 -22 95 -61 185 -26 61 -99 208 -110 223 -6 8 -11 22 -13 33 -2 14 -158 329 -240 484 -5 11 -18 36 -28 55 -10 19 -21 37 -24 40 -3 3 -15 23 -26 45 -11 22 -26 46 -32 53 -7 7 -13 17 -13 22 0 12 -141 270 -169 308 -11 17 -21 35 -21 40 0 6 -6 17 -13 24 -7 7 -18 24 -25 38 -18 35 -32 58 -69 112 -18 26 -33 49 -33 53 0 10 -83 130 -92 133 -4 2 -8 8 -8 14 0 6 -11 26 -25 44 -14 18 -25 35 -25 38 0 3 -37 61 -83 128 -46 68 -117 173 -157 233 -41 61 -83 122 -95 136 -26 34 -43 59 -58 86 -35 64 -186 276 -255 359 -18 21 -51 64 -74 94 -23 30 -62 78 -87 105 -72 80 -109 124 -143 171 -30 42 -54 50 -45 14 3 -10 -4 -28 -14 -39 -14 -15 -17 -26 -10 -43 10 -29 13 -98 3 -98 -4 0 -14 -21 -21 -47 -16 -55 -47 -104 -64 -100 -22 4 -34 21 -26 37 9 17 42 95 53 124 4 11 2 22 -5 26 -8 5 -6 15 6 34 14 20 15 30 6 39 -15 15 -14 44 2 54 6 4 12 15 13 23 1 8 4 25 8 36 4 14 1 28 -9 38 -9 9 -13 20 -10 26 3 5 0 10 -8 10 -8 0 -21 14 -29 30 -20 41 -148 181 -160 174 -4 -3 -7 -1 -6 3 5 17 -145 173 -167 173 -5 0 -23 14 -39 30 -16 16 -37 32 -47 35 -11 4 -19 12 -19 19 0 6 -15 20 -32 31 -18 10 -39 27 -46 37 -7 10 -22 18 -33 18 -11 0 -22 7 -25 15 -4 10 -13 13 -26 9 -13 -4 -18 -2 -14 5 4 5 -7 17 -24 26 -16 8 -30 19 -30 23 0 5 -15 16 -32 25 -18 10 -64 35 -103 56 -47 27 -77 38 -93 34 -26 -6 -55 14 -48 33 3 7 -5 16 -16 20 -12 3 -74 43 -139 88 -64 44 -132 90 -150 101 -50 29 -143 49 -169 37z m129 -374 c23 -24 20 -38 -8 -31 -21 5 -35 29 -25 44 8 13 11 12 33 -13z m1259 -1129 c2 -13 8 -29 14 -36 5 -7 7 -17 3 -23 -3 -5 -1 -10 4 -10 6 0 11 -11 11 -25 0 -14 -5 -25 -11 -25 -6 0 -8 7 -5 16 3 8 2 12 -4 9 -6 -3 -10 1 -10 9 0 9 -7 16 -15 16 -16 0 -17 -1 -19 -43 -1 -15 -11 -34 -24 -42 -12 -9 -19 -22 -16 -30 8 -19 -56 -46 -72 -31 -8 8 -8 14 2 23 7 7 10 22 7 33 -3 11 0 20 6 20 5 0 8 -7 4 -16 -4 -12 -2 -15 8 -12 8 3 13 15 11 28 -1 12 2 28 8 35 6 7 8 20 4 28 -4 12 2 18 20 23 21 5 25 11 20 29 -6 24 20 59 40 52 6 -2 13 -14 14 -28z m-238 -310 c9 -16 8 -26 -7 -47 -9 -15 -17 -30 -16 -33 1 -4 -9 -6 -22 -6 -19 0 -25 5 -25 23 0 12 5 26 12 30 8 5 9 2 5 -10 -4 -10 -3 -15 3 -11 5 3 7 19 4 34 -5 23 -2 30 12 34 11 3 20 5 21 6 1 0 7 -8 13 -20z m-256 -355 c11 -29 7 -46 -10 -40 -12 5 -15 2 -9 -11 4 -13 0 -12 -15 5 -21 23 -22 24 -4 42 24 23 30 24 38 4z m-643 -604 c29 16 25 -14 -7 -45 -21 -21 -29 -24 -35 -13 -12 19 -11 36 2 18 8 -12 10 -12 8 5 -2 32 2 52 8 38 3 -9 10 -10 24 -3z m-205 -263 c2 -7 0 -24 -6 -38 -10 -24 -10 -24 -5 3 3 15 1 30 -5 33 -5 3 -10 0 -10 -8 0 -8 -8 -21 -17 -28 -15 -11 -16 -11 -5 1 6 8 12 22 12 32 0 21 28 25 36 5z m-346 -501 c0 -19 -5 -24 -20 -23 -24 2 -25 5 -3 29 21 23 23 23 23 -6z m-189 -185 c7 11 9 9 9 -7 0 -22 -25 -40 -34 -25 -3 4 -2 18 2 32 5 20 7 21 10 5 3 -15 6 -16 13 -5z m-753 -758 c-10 -2 -18 -9 -18 -15 0 -6 -3 -9 -6 -5 -10 10 6 27 24 26 15 -1 15 -2 0 -6z m-123 -153 c-3 -5 -8 -23 -10 -39 -3 -27 -1 -29 19 -21 12 4 51 7 85 6 47 -1 68 3 83 16 15 13 25 15 46 7 17 -6 27 -6 32 0 16 26 110 -12 110 -44 0 -6 27 -42 60 -81 32 -38 60 -76 60 -84 0 -8 16 -46 35 -83 19 -38 35 -78 35 -91 0 -12 7 -31 15 -42 8 -10 15 -32 15 -48 0 -29 37 -96 53 -96 4 0 7 -9 7 -21 0 -12 16 -37 35 -56 19 -19 35 -41 35 -49 0 -8 5 -14 10 -14 6 0 10 -7 10 -15 0 -23 43 -105 52 -99 4 3 9 2 9 -3 1 -4 3 -20 4 -34 4 -28 24 -76 52 -124 35 -59 33 -57 50 -43 14 11 15 10 9 -10 -5 -16 -3 -24 9 -28 9 -4 13 -13 10 -24 -3 -9 4 -38 15 -63 13 -28 18 -56 14 -71 -3 -13 -1 -27 5 -30 6 -4 11 -16 11 -26 0 -12 5 -17 14 -14 7 3 16 -3 20 -12 8 -22 -2 -33 -14 -14 -16 26 -21 4 -6 -25 8 -16 13 -32 11 -36 -3 -4 3 -10 13 -14 15 -6 16 -8 1 -18 -9 -7 -19 -33 -23 -59 -4 -26 -14 -54 -22 -62 -12 -13 -10 -19 15 -47 35 -38 43 -71 24 -99 -10 -14 -11 -25 -4 -39 6 -11 12 -50 14 -87 l4 -68 61 -57 c34 -32 64 -69 68 -83 9 -36 -29 -96 -56 -89 -15 4 -19 11 -14 25 7 23 -29 103 -51 112 -13 5 -15 0 -9 -30 5 -25 2 -40 -10 -53 -13 -15 -14 -26 -5 -80 10 -52 9 -69 -5 -104 -19 -50 -20 -61 -5 -51 15 9 1 -36 -17 -57 -8 -8 -14 -20 -14 -26 0 -6 -15 -22 -34 -37 -19 -14 -36 -36 -38 -47 -2 -12 -12 -27 -22 -33 -63 -36 -119 -89 -138 -132 -12 -28 -26 -44 -43 -48 -13 -3 -29 -15 -35 -26 -6 -11 -15 -18 -20 -15 -5 3 -27 -12 -48 -35 -22 -22 -49 -40 -60 -40 -12 0 -35 -13 -52 -30 -17 -16 -43 -33 -58 -36 -15 -4 -34 -12 -42 -20 -28 -24 -118 -64 -143 -64 -14 0 -29 -4 -32 -10 -4 -6 -14 -5 -28 4 -12 8 -31 12 -41 11 -24 -5 -72 19 -79 39 -4 9 -12 13 -20 10 -7 -2 -22 4 -32 16 -10 11 -26 20 -37 20 -10 0 -26 8 -37 18 -35 33 -96 77 -104 74 -4 -1 -6 1 -5 5 5 15 -41 79 -78 108 -21 17 -43 36 -51 43 -7 7 -17 11 -23 7 -6 -3 -7 1 -4 9 3 9 1 16 -5 16 -6 0 -11 -5 -11 -11 0 -6 -8 -8 -17 -5 -10 3 -39 7 -65 8 -52 3 -64 15 -22 20 l26 3 -33 24 c-20 15 -30 18 -27 10 7 -18 -17 -53 -30 -45 -6 3 -12 0 -15 -6 -2 -7 -8 -9 -13 -5 -5 5 -1 13 9 18 25 14 22 32 -4 19 -11 -7 -27 -9 -34 -6 -8 3 -16 0 -19 -7 -5 -9 -7 -9 -12 1 -3 6 -14 12 -24 12 -24 0 -50 37 -50 72 0 20 -16 44 -55 85 -58 61 -69 97 -40 127 8 8 15 19 15 25 0 6 9 15 20 21 26 14 25 32 -1 56 -12 10 -28 32 -36 49 -14 26 -14 30 -1 39 13 8 12 19 -4 90 -10 44 -25 87 -32 96 -8 8 -20 33 -27 55 -7 22 -17 44 -21 49 -4 6 -8 17 -8 25 0 8 -21 56 -46 107 -38 76 -48 108 -55 171 -4 43 -9 85 -10 93 -5 37 2 58 18 56 12 -1 19 7 21 24 3 21 2 22 -12 11 -28 -23 -18 7 11 37 15 15 27 30 25 35 -1 4 3 7 8 7 6 0 10 5 10 10 0 6 -7 10 -15 10 -8 0 -15 5 -15 10 0 6 -6 10 -14 10 -8 0 -13 8 -12 17 2 10 -3 24 -11 31 -18 18 -17 62 1 62 8 0 17 6 19 13 3 7 6 5 6 -5 1 -10 5 -18 11 -18 5 0 9 19 8 43 -1 67 9 90 38 83 18 -5 24 -2 24 9 0 9 7 18 15 21 17 7 20 40 5 49 -18 11 -11 41 15 65 14 13 25 29 25 36 0 7 9 20 21 28 12 8 18 19 15 25 -7 11 44 67 57 63 4 -1 7 3 6 10 -3 26 1 38 14 38 21 0 48 35 42 53 -4 8 -2 18 4 21 6 4 8 13 5 20 -3 7 2 19 11 26 13 11 13 15 3 22 -9 6 -5 7 10 3 16 -5 22 -2 22 10 0 11 6 14 23 10 16 -4 31 1 50 19 26 25 37 43 17 31 -5 -3 -10 -2 -10 3 0 6 13 15 29 20 29 10 49 57 31 75 -4 5 -1 22 9 38 11 21 24 29 44 29 15 0 27 5 27 11 0 6 -7 9 -15 5 -8 -3 -15 -1 -15 5 0 6 12 9 26 7 19 -2 37 6 61 29 19 18 32 36 30 40 -3 5 -1 17 3 29 7 16 15 20 39 16 17 -2 31 0 31 6 0 13 38 23 46 11 9 -15 34 -10 34 6 0 18 11 19 29 3 12 -11 13 -10 7 6 -5 16 -4 17 9 6 9 -7 18 -10 22 -6 3 3 0 6 -8 6 -11 1 -11 3 2 13 9 7 21 22 28 35 6 12 21 22 32 22 11 0 17 -4 14 -10z m-325 -165 c-7 -9 -15 -13 -19 -10 -3 3 1 10 9 15 21 14 24 12 10 -5z m911 -277 c11 -21 11 -22 -4 -9 -10 7 -17 17 -17 22 0 15 9 10 21 -13z m29 -69 c0 -6 -4 -7 -10 -4 -5 3 -10 11 -10 16 0 6 5 7 10 4 6 -3 10 -11 10 -16z m4510 0 c0 -11 -4 -17 -10 -14 -5 3 -10 13 -10 21 0 8 5 14 10 14 6 0 10 -9 10 -21z m-6750 -864 c0 -8 -4 -15 -10 -15 -5 0 -10 7 -10 15 0 8 5 15 10 15 6 0 10 -7 10 -15z m510 -36 c0 -6 -4 -7 -10 -4 -5 3 -10 11 -10 16 0 6 5 7 10 4 6 -3 10 -11 10 -16z m110 -5 c0 -8 -4 -14 -9 -14 -6 0 -9 9 -8 19 1 22 17 18 17 -5z m-80 -207 c0 -16 -3 -17 -15 -7 -8 7 -15 16 -15 20 0 3 7 7 15 7 8 0 15 -9 15 -20z m-19 -100 c-10 -9 -11 -8 -5 6 3 10 9 15 12 12 3 -3 0 -11 -7 -18z m-620 -1156 c6 10 9 5 9 -16 0 -23 3 -26 10 -15 7 11 12 12 21 3 16 -16 3 -32 -23 -25 -16 4 -19 2 -13 -9 8 -12 6 -12 -8 0 -10 8 -17 27 -16 45 0 17 3 25 6 17 5 -11 7 -11 14 0z m5117 -90 c23 3 35 -4 61 -34 30 -33 32 -41 26 -79 -4 -24 -10 -45 -14 -48 -3 -3 -26 -31 -50 -63 -52 -68 -76 -72 -77 -12 -1 60 -11 80 -56 120 -41 35 -71 94 -59 113 3 5 29 14 56 19 39 7 54 6 67 -5 9 -7 30 -12 46 -11z m-5173 -161 c3 -11 4 -24 0 -30 -3 -6 1 -7 9 -4 11 4 16 0 16 -10 0 -9 -8 -16 -20 -16 -22 0 -45 43 -36 67 8 19 24 16 31 -7z m4185 -180 c0 -5 -8 -11 -17 -14 -20 -8 -32 9 -26 36 5 18 7 18 24 2 11 -9 19 -20 19 -24z m-4260 -40 c5 0 11 6 14 13 2 6 4 -9 3 -34 -2 -37 -5 -45 -19 -41 -18 4 -26 34 -19 72 3 18 5 20 8 8 3 -10 8 -18 13 -18z m4970 15 c0 -8 -4 -15 -9 -15 -13 0 -22 16 -14 24 11 11 23 6 23 -9z m-851 -95 c5 -16 8 -30 5 -30 -3 0 0 -9 6 -20 9 -16 8 -20 -5 -20 -8 0 -15 -3 -15 -7 0 -5 -23 -8 -50 -9 -59 -1 -65 13 -21 56 16 16 31 36 34 45 10 25 34 17 46 -15z m946 -11 c-3 -5 1 -6 9 -3 12 4 16 0 16 -16 0 -20 -2 -21 -17 -9 -10 8 -21 18 -25 24 -9 12 1 27 13 19 5 -3 7 -10 4 -15z m-5165 -119 c-6 -12 -14 -20 -17 -17 -2 3 1 14 8 26 17 26 24 19 9 -9z m26 -18 c-2 -4 -1 -26 3 -49 10 -53 -4 -71 -31 -40 -21 24 -17 66 8 80 8 5 11 13 8 19 -4 7 -2 8 5 4 6 -4 9 -10 7 -14z m3974 -108 c0 -6 -11 -21 -24 -33 -13 -12 -26 -36 -30 -52 -8 -43 -37 -84 -47 -67 -6 10 -12 8 -24 -7 -9 -11 -14 -14 -10 -8 4 8 -4 18 -19 25 -27 12 -34 34 -14 40 8 3 3 13 -14 29 -25 24 -26 26 -10 47 24 32 78 45 106 27 21 -14 24 -13 34 10 10 22 14 24 32 13 11 -7 20 -18 20 -24z m-4080 -109 c-7 -9 -15 -13 -18 -10 -3 2 1 11 8 20 7 9 15 13 18 10 3 -2 -1 -11 -8 -20z m17 -84 l-1 -70 -22 24 c-12 13 -25 21 -29 17 -3 -4 -5 11 -3 33 2 33 7 41 26 43 12 2 22 8 22 13 0 5 2 9 4 9 3 0 4 -31 3 -69z m3896 4 c-3 -9 -8 -14 -10 -11 -3 3 -2 9 2 15 9 16 15 13 8 -4z m10 -35 c4 0 5 5 2 10 -3 6 -2 10 3 10 8 0 25 -41 19 -46 -8 -7 -77 31 -77 43 0 12 3 12 22 -1 12 -9 26 -16 31 -16z m-16 -67 c0 -22 -25 -53 -44 -53 -13 0 -19 51 -6 63 14 15 50 7 50 -10z m1154 -59 c13 -53 23 -150 21 -202 -1 -25 6 -58 17 -80 10 -21 21 -72 25 -117 4 -44 11 -84 15 -90 5 -5 11 -37 15 -70 4 -32 14 -73 23 -90 34 -65 44 -191 23 -290 -5 -22 1 -35 15 -35 8 0 25 -19 37 -41 13 -23 29 -53 37 -67 7 -14 24 -64 36 -111 13 -47 37 -124 54 -171 17 -47 33 -105 36 -128 3 -24 9 -51 14 -61 5 -9 17 -46 26 -81 9 -36 40 -114 69 -175 29 -60 58 -131 64 -157 7 -26 28 -81 47 -123 19 -42 37 -93 41 -113 7 -46 33 -120 52 -149 22 -35 85 -98 94 -95 5 1 8 -6 7 -15 -4 -22 22 -93 33 -93 4 0 8 7 8 16 0 13 5 12 27 -6 26 -20 59 -90 43 -90 -20 0 -19 -36 4 -70 32 -49 76 -136 76 -152 0 -7 16 -36 36 -63 48 -68 96 -163 88 -177 -20 -32 48 -178 83 -178 17 0 56 -102 54 -141 -2 -28 3 -41 22 -56 14 -10 34 -38 46 -60 11 -23 25 -44 31 -48 5 -3 10 -17 10 -30 0 -13 4 -26 9 -30 5 -3 15 -22 22 -43 6 -20 20 -55 30 -77 9 -22 27 -76 38 -120 12 -44 26 -89 31 -100 17 -34 69 -212 81 -277 12 -63 15 -73 62 -180 14 -31 23 -58 21 -61 -3 -2 2 -10 11 -17 8 -7 15 -22 15 -34 0 -11 9 -34 20 -51 31 -45 85 -155 99 -200 7 -22 25 -69 41 -105 29 -69 50 -145 50 -184 0 -31 29 -99 46 -109 8 -4 14 -17 14 -28 0 -30 35 -149 59 -203 12 -26 20 -53 18 -59 -2 -7 -1 -19 4 -28 5 -9 9 -40 10 -68 1 -29 6 -54 11 -57 4 -3 5 -16 2 -29 -3 -13 1 -48 9 -77 9 -29 18 -75 20 -101 3 -26 10 -54 17 -62 6 -8 9 -18 6 -23 -3 -6 0 -25 8 -43 8 -19 17 -61 21 -94 6 -41 14 -64 26 -73 23 -16 25 -42 4 -42 -18 0 -18 -13 0 -65 8 -22 15 -50 15 -62 0 -13 5 -23 10 -23 6 0 10 -6 8 -12 -5 -27 14 -108 24 -102 5 3 8 14 5 23 -3 12 4 16 25 17 40 2 53 17 78 94 40 123 52 139 79 106 9 -11 9 -20 2 -35 -6 -11 -11 -30 -11 -43 0 -13 -7 -34 -16 -46 -8 -12 -12 -27 -9 -32 3 -6 2 -10 -3 -10 -20 0 -72 -58 -66 -73 3 -10 -2 -21 -14 -28 -11 -7 -18 -19 -15 -26 3 -7 0 -13 -6 -13 -6 0 -11 -7 -11 -16 0 -29 -32 -84 -49 -84 -26 0 -40 -20 -35 -49 6 -32 -12 -63 -24 -43 -9 13 -42 6 -42 -9 0 -12 -37 -11 -45 1 -10 16 -73 42 -84 35 -6 -3 -11 -12 -11 -19 0 -19 -40 -53 -83 -71 -25 -10 -37 -12 -37 -4 0 6 -7 8 -16 5 -9 -4 -23 2 -32 13 -41 49 -136 41 -168 -13 -28 -47 -41 -57 -67 -50 -14 3 -28 1 -32 -6 -8 -14 -63 -4 -85 16 -9 7 -33 16 -55 19 -37 5 -44 2 -105 -50 -36 -31 -74 -55 -86 -55 -12 0 -30 -3 -40 -7 -12 -4 -15 -3 -10 5 4 8 2 10 -7 6 -9 -3 -22 4 -31 17 -8 13 -19 20 -22 16 -4 -4 -13 -2 -21 5 -8 6 -34 11 -60 10 -37 0 -51 -6 -78 -32 -20 -19 -45 -33 -63 -35 -17 -1 -44 -7 -60 -14 -32 -13 -72 -2 -72 21 0 5 -9 8 -20 5 -11 -3 -20 -1 -20 4 0 13 -28 -3 -62 -35 -15 -14 -31 -26 -36 -26 -5 0 -15 -6 -21 -14 -17 -20 -98 -41 -113 -29 -7 5 -29 10 -48 12 -19 1 -39 6 -44 11 -17 17 -53 11 -68 -12 -16 -23 -99 -55 -116 -44 -5 3 -15 -1 -22 -9 -7 -8 -9 -15 -4 -15 5 0 2 -4 -5 -9 -8 -5 -22 -6 -30 -2 -9 5 -21 6 -28 4 -6 -2 -30 7 -52 21 -22 14 -47 26 -55 26 -21 0 -46 11 -46 20 0 5 10 6 23 4 12 -2 16 -2 9 2 -6 3 -10 10 -6 15 7 12 -13 12 -36 -1 -22 -12 -41 7 -20 20 7 4 13 26 13 49 0 31 -6 45 -24 60 -15 13 -19 20 -10 21 26 0 -9 29 -50 40 -27 8 -45 8 -58 0 -13 -7 -22 -7 -26 0 -3 5 -1 10 4 10 6 0 11 5 11 10 0 6 -4 10 -9 10 -14 0 -71 -60 -71 -74 0 -7 -9 -21 -20 -31 -22 -20 -26 -35 -10 -35 6 0 14 8 17 17 4 10 13 24 20 31 7 8 11 18 8 23 -4 5 -1 9 6 9 7 0 9 -10 6 -30 -5 -21 -3 -28 6 -24 14 5 35 -42 29 -68 -2 -10 -11 -18 -20 -18 -20 1 -62 30 -43 30 22 0 2 17 -28 23 -22 5 -31 13 -36 37 -4 16 -10 30 -15 30 -4 0 -11 10 -14 23 l-7 22 -10 -23 c-5 -13 -7 -28 -3 -33 3 -5 0 -9 -5 -9 -6 0 -14 17 -17 39 -5 32 -10 38 -25 34 -10 -3 -19 0 -19 6 0 10 20 15 48 12 22 -3 13 14 -17 31 -23 13 -31 13 -34 3 -3 -7 -17 -15 -31 -17 -24 -5 -31 2 -27 26 5 26 -52 116 -74 116 -11 0 -45 -31 -45 -40 0 -5 7 -11 16 -14 8 -3 13 -2 10 3 -3 5 2 15 11 22 15 12 16 12 10 -4 -4 -11 -1 -17 9 -17 21 0 14 -34 -8 -38 -9 -2 -26 7 -38 20 -16 18 -23 20 -29 9 -7 -11 -10 -11 -17 1 -5 8 -21 23 -36 32 -15 10 -25 23 -22 30 3 8 -2 16 -10 19 -10 4 -16 1 -16 -9 0 -25 -28 -27 -56 -5 -15 12 -21 21 -15 21 6 0 21 21 32 48 17 39 19 53 10 82 -6 19 -15 51 -19 70 -8 31 -12 35 -40 34 -18 -1 -32 2 -32 7 0 5 -14 9 -30 9 -23 0 -33 6 -42 25 -6 14 -16 25 -22 25 -24 0 -2 -145 22 -155 14 -5 14 -7 2 -15 -13 -8 -12 -11 5 -24 14 -10 22 -11 27 -3 4 6 10 8 14 4 4 -4 -1 -14 -12 -22 -22 -17 -38 -20 -29 -5 3 6 2 10 -4 10 -5 0 -13 -4 -16 -10 -3 -6 -12 -10 -18 -10 -7 0 -4 7 6 14 20 15 22 28 5 25 -32 -4 -44 3 -55 30 -8 21 -8 32 0 40 13 13 -4 14 -52 5 l-32 -7 21 -19 c11 -10 20 -23 20 -28 0 -5 8 -11 18 -13 15 -4 15 -5 0 -6 -9 0 -26 11 -37 25 -14 18 -26 24 -39 20 -14 -5 -21 -1 -25 14 -3 11 -16 24 -30 29 -43 17 -44 33 -1 30 30 -2 38 0 36 11 -5 23 -23 40 -34 34 -5 -3 -5 -11 2 -18 8 -10 3 -13 -20 -12 -27 1 -46 26 -19 26 5 0 7 5 4 11 -4 6 -14 8 -22 5 -9 -4 -11 -2 -7 6 5 7 2 9 -9 5 -9 -3 -25 4 -41 20 -29 29 -31 35 -15 66 12 22 12 22 -10 3 -11 -11 -21 -26 -21 -35 -1 -11 -7 -7 -21 12 -11 15 -28 27 -36 27 -9 0 -13 6 -9 15 3 9 0 15 -10 15 -9 0 -14 -6 -11 -13 3 -9 -3 -13 -17 -13 -14 1 -20 -4 -18 -14 2 -10 0 -12 -7 -5 -16 16 -2 55 16 48 13 -5 12 -1 -2 21 l-18 27 -27 -26 c-24 -23 -28 -24 -40 -10 -11 13 -11 21 -2 36 7 10 12 24 12 31 0 7 7 21 15 32 12 16 16 16 28 5 7 -8 12 -20 9 -28 -3 -8 0 -11 7 -7 15 10 14 33 -3 43 -7 4 -22 26 -32 48 -11 22 -33 49 -51 60 -33 21 -45 39 -18 29 8 -4 15 -1 15 4 0 15 -18 24 -25 12 -3 -5 -20 -7 -37 -3 -22 4 -29 3 -24 -5 10 -16 -5 -15 -30 2 -18 13 -22 12 -41 -10 l-22 -25 22 -9 c12 -5 16 -9 10 -9 -7 -1 -13 -8 -13 -16 0 -21 -17 -19 -30 5 -6 11 -8 20 -4 20 3 0 1 7 -7 16 -12 14 -14 14 -26 -2 -7 -10 -16 -14 -20 -11 -4 4 3 14 15 23 13 9 19 21 15 30 -3 9 7 27 26 46 17 17 31 34 31 39 0 18 18 8 24 -13 6 -27 21 -16 31 23 8 33 -22 50 -42 23 -10 -14 -12 -9 -15 31 -2 34 -8 51 -22 59 -10 6 -31 23 -46 39 -15 15 -37 27 -49 27 -22 0 -30 -19 -8 -21 6 0 3 -4 -8 -8 -29 -12 -38 -3 -31 31 5 27 4 29 -17 23 -12 -4 -27 -12 -32 -19 -12 -13 -30 -19 -64 -20 -13 -1 -26 -7 -28 -13 -7 -19 -34 12 -38 42 -3 31 30 35 38 5 5 -20 27 -28 27 -10 0 6 -5 10 -12 10 -6 0 -9 3 -6 6 4 3 16 0 28 -6 17 -9 25 -9 34 1 8 9 8 10 -4 5 -8 -4 -7 -1 4 8 25 20 46 63 46 93 0 16 -13 36 -35 55 -19 17 -31 36 -28 41 4 6 0 8 -10 4 -9 -3 -19 -2 -22 3 -4 6 -19 10 -34 10 -15 0 -36 9 -46 20 -16 17 -19 18 -41 4 -13 -9 -29 -14 -36 -12 -21 7 -68 -63 -57 -84 6 -10 5 -19 -1 -23 -26 -16 -22 71 3 87 9 6 8 11 -3 18 -13 9 -12 13 9 30 13 11 19 20 15 21 -5 1 2 4 16 8 14 4 33 21 43 41 10 19 15 25 12 13 -4 -13 -2 -23 4 -23 6 0 10 -8 8 -17 -4 -30 17 -30 31 0 13 27 32 28 32 1 0 -8 6 -14 14 -14 18 0 31 51 16 60 -18 11 29 83 49 75 9 -4 37 -9 63 -12 45 -5 48 -4 65 26 10 17 21 31 26 31 14 0 6 55 -11 76 -23 28 -84 62 -127 70 -25 4 -35 11 -31 20 6 16 -10 19 -19 3 -4 -6 -12 -8 -19 -6 -6 2 -20 -4 -30 -14 -11 -11 -15 -19 -9 -19 7 0 11 -19 11 -45 -1 -39 -4 -45 -22 -45 -20 1 -20 1 -2 11 15 9 16 13 5 20 -12 8 -12 11 1 20 13 9 13 10 0 6 -8 -2 -15 -10 -15 -18 0 -8 -5 -17 -12 -22 -25 -16 2 -87 33 -87 12 0 19 19 15 43 -2 15 19 6 29 -13 15 -27 -4 -96 -30 -110 -17 -9 -20 -7 -20 10 0 13 -7 20 -20 20 -11 0 -20 -4 -20 -10 0 -5 -6 -10 -14 -10 -9 0 -16 17 -21 48 -4 26 -12 53 -18 61 -9 11 -9 15 1 18 20 7 14 23 -9 23 -16 0 -19 -4 -14 -21 5 -16 3 -20 -6 -17 -8 3 -14 14 -14 25 0 32 -10 36 -47 18 l-33 -17 29 31 c28 30 29 31 8 31 -32 0 -27 14 11 31 17 8 31 19 31 24 -1 6 -4 25 -7 43 -5 24 -3 32 8 32 8 0 15 7 15 15 0 29 -34 12 -44 -22 -7 -21 -36 -33 -36 -15 0 14 29 97 29 85 1 -7 10 -13 21 -13 18 0 67 -24 80 -40 3 -4 12 -9 21 -12 11 -4 15 -18 14 -52 -1 -30 2 -45 9 -43 13 4 16 38 4 54 -5 6 -5 14 2 18 6 3 8 10 5 15 -3 5 4 12 15 15 38 12 54 100 26 140 -7 11 -16 33 -20 48 -4 16 -11 25 -17 21 -8 -4 -7 -10 0 -17 17 -17 13 -26 -9 -20 -14 4 -20 14 -20 34 0 24 -4 29 -25 29 -30 0 -32 11 -5 35 18 16 20 16 20 2 0 -28 15 -19 28 16 16 45 15 49 -9 42 -16 -5 -20 -4 -15 6 3 8 9 22 12 32 5 13 12 16 28 10 11 -4 32 -7 46 -7 14 0 28 -4 31 -9 13 -19 66 43 73 84 6 38 4 44 -44 96 -27 30 -50 59 -50 64 0 13 24 11 38 -3 9 -9 12 -8 12 5 0 12 8 17 29 17 17 0 33 5 37 12 5 8 0 9 -15 5 -15 -4 -30 3 -51 25 -17 16 -30 34 -30 39 0 13 18 11 23 -3 4 -10 7 -10 18 0 12 11 11 15 -3 23 -10 6 -18 14 -18 19 0 17 25 11 39 -8 16 -22 52 -18 76 8 32 36 27 144 -7 153 -11 3 -22 15 -25 26 -6 22 -23 29 -23 9 0 -6 -9 -2 -20 10 -11 12 -20 23 -20 26 0 2 9 2 20 -1 14 -4 20 0 20 11 0 9 6 13 14 10 20 -8 28 37 11 56 -17 19 -20 40 -5 40 7 0 7 6 0 20 -6 11 -7 20 -2 20 10 0 63 -39 73 -53 7 -10 42 20 58 52 14 25 14 86 1 112 -9 15 -7 19 5 19 9 0 13 5 10 10 -5 8 -11 8 -20 0 -16 -13 -43 -3 -48 18 -3 12 -5 10 -6 -5 0 -13 -6 -23 -12 -23 -6 0 -8 8 -4 19 8 25 -9 35 -35 21 -16 -9 -18 -8 -14 5 4 8 10 15 15 15 4 0 5 8 2 17 -5 13 -2 15 12 10 9 -4 23 -3 30 3 9 8 15 8 20 0 4 -6 12 -7 24 -1 13 7 16 19 13 45 -3 22 -8 33 -16 30 -8 -3 -11 6 -8 31 5 40 11 43 34 15 22 -25 67 -37 78 -20 4 6 10 39 14 73 6 56 4 63 -20 89 -15 15 -32 24 -37 21 -6 -4 -2 -10 9 -14 15 -6 15 -8 3 -8 -9 -1 -29 15 -44 35 -26 34 -27 38 -14 76 9 29 10 44 2 57 -6 9 -14 37 -17 61 -6 41 -6 43 8 26 20 -24 31 -15 45 37 11 37 16 43 42 45 36 3 36 -4 -1 -48 -36 -42 -37 -48 -6 -59 13 -5 26 -17 29 -25 4 -9 18 -16 34 -16 20 0 24 -3 14 -9 -8 -5 -9 -11 -3 -15 17 -10 29 17 35 78 5 54 4 60 -21 82 -15 13 -33 24 -40 24 -7 0 -15 7 -18 15 -4 8 -15 15 -26 15 -12 0 -17 -4 -12 -12 5 -10 4 -10 -5 -2 -9 8 -7 20 5 50 22 51 26 114 8 114 -8 0 -14 10 -13 23 1 25 16 78 18 61 1 -6 12 -9 26 -6 18 3 25 11 25 27 0 13 -6 26 -12 28 -10 4 -10 7 -1 14 16 11 63 81 74 110 5 13 5 33 0 46 -9 24 1 54 38 112 11 17 20 38 20 48 1 10 8 25 16 33 8 9 15 23 15 33 0 10 9 26 20 36 11 10 20 26 20 35 0 9 12 27 26 41 15 13 40 53 56 89 16 36 35 76 42 90 7 14 16 41 20 61 3 20 15 44 26 54 12 11 20 31 20 52 0 18 4 33 8 33 12 0 32 46 32 71 0 11 16 36 35 56 19 20 35 40 35 45 0 11 41 47 53 48 18 0 37 30 37 58 0 18 10 38 26 53 19 18 24 30 20 52 -6 30 22 93 54 122 10 9 29 15 42 14 30 -4 61 14 83 47 l17 27 -36 -28 c-20 -15 -36 -23 -36 -17 0 6 5 14 10 17 6 4 8 11 5 16 -3 5 2 6 11 2 14 -5 16 -2 10 20 -4 16 -2 27 4 27 17 0 25 -5 22 -13 -1 -5 2 -6 6 -3 5 3 7 17 4 31 -3 17 0 25 10 25 8 0 24 21 35 48 21 46 56 92 72 92 4 0 7 10 7 23 -1 15 4 22 16 21 12 -1 19 8 24 32 3 18 12 38 20 45 8 6 14 20 14 30 0 11 4 19 9 19 10 0 32 35 52 83 6 15 15 27 20 27 5 0 28 19 52 43 64 63 110 103 130 110 10 4 24 22 32 41 8 19 24 41 34 48 32 23 97 111 105 142 4 15 22 45 41 65 19 20 35 40 35 45 0 5 6 3 14 -3 11 -9 15 -4 20 26 8 50 18 65 48 66 21 2 24 6 21 31 -1 16 4 40 13 54 14 21 18 23 31 10 8 -9 19 -33 24 -54z m-525 -75 c9 -16 -18 -30 -33 -17 -7 6 -13 14 -13 19 0 13 38 11 46 -2z m218 -45 c17 -16 22 -64 8 -64 -17 0 -54 49 -49 64 8 20 21 20 41 0z m-1380 -251 c17 -10 26 -56 13 -70 -12 -12 -56 -5 -81 13 -30 22 -32 31 -10 55 17 19 47 20 78 2z m1154 -25 c19 -19 15 -48 -7 -48 -25 0 -34 14 -26 40 7 23 16 25 33 8z m-4761 -171 c0 -8 -6 -14 -13 -14 -7 0 -10 6 -7 14 3 7 8 13 12 13 4 0 8 -6 8 -13z m3334 -7 c10 -6 19 -17 19 -24 0 -8 7 -16 15 -20 9 -3 13 -14 11 -28 -3 -13 -5 -27 -5 -32 -1 -6 -6 -5 -13 2 -7 7 -17 12 -22 12 -6 0 -5 -5 1 -11 15 -15 5 -39 -16 -38 -10 0 -11 2 -3 6 16 6 6 23 -14 23 -10 0 -12 -5 -8 -12 5 -9 2 -9 -9 1 -22 17 -22 41 -1 41 12 0 11 5 -7 20 -16 13 -20 22 -13 27 6 5 13 16 17 26 7 20 20 21 48 7z m1214 -161 c9 -28 -3 -41 -25 -26 -19 11 -26 37 -14 50 10 10 33 -4 39 -24z m4688 -170 c-4 -15 -9 -17 -17 -9 -8 8 -7 13 4 20 8 5 16 10 17 10 0 0 -1 -9 -4 -21z m-6236 -111 c-1 -17 4 -24 21 -26 24 -4 31 -22 9 -22 -22 0 -53 33 -49 53 5 25 22 21 19 -5z m43 -3 c10 -12 10 -15 -4 -15 -9 0 -16 7 -16 15 0 8 2 15 4 15 2 0 9 -7 16 -15z m1265 -41 c18 -18 17 -55 -2 -61 -16 -6 -47 43 -39 62 7 19 21 19 41 -1z m1795 -480 c0 -8 -4 -12 -10 -9 -5 3 -10 10 -10 16 0 5 5 9 10 9 6 0 10 -7 10 -16z m3777 -220 c-3 -3 -12 -4 -19 -1 -8 3 -5 6 6 6 11 1 17 -2 13 -5z m-47 -71 c0 -14 -23 -43 -34 -43 -3 0 -6 15 -6 34 0 29 3 33 20 29 11 -3 20 -12 20 -20z m-3310 -103 c-6 -12 -14 -20 -16 -17 -3 3 -2 17 2 32 4 17 10 23 16 17 6 -6 6 -18 -2 -32z m598 -304 c3 -15 1 -16 -17 -5 -11 7 -17 17 -14 22 8 13 28 2 31 -17z m-1088 -153 c0 -7 -4 -13 -10 -13 -5 0 -10 12 -10 28 0 21 2 24 10 12 5 -8 10 -21 10 -27z m77 -85 c-3 -8 -6 -5 -6 6 -1 11 2 17 5 13 3 -3 4 -12 1 -19z m-4502 -409 c-4 -5 0 -9 7 -9 8 0 14 -8 15 -19 1 -14 -3 -17 -18 -14 -11 3 -22 9 -25 14 -8 14 6 50 17 43 5 -3 7 -10 4 -15z m4805 -270 c0 -6 -4 -7 -10 -4 -5 3 -10 11 -10 16 0 6 5 7 10 4 6 -3 10 -11 10 -16z m4120 11 c0 -5 -2 -10 -4 -10 -3 0 -8 5 -11 10 -3 6 -1 10 4 10 6 0 11 -4 11 -10z m-4080 -91 c0 -6 -4 -7 -10 -4 -5 3 -10 11 -10 16 0 6 5 7 10 4 6 -3 10 -11 10 -16z m4110 -29 c0 -5 -4 -10 -10 -10 -5 0 -10 5 -10 10 0 6 5 10 10 10 6 0 10 -4 10 -10z m-7105 -49 c-3 -6 -11 -8 -17 -5 -6 4 -5 9 3 15 16 10 23 4 14 -10z m5878 -44 c4 3 7 -3 7 -14 0 -11 -7 -26 -15 -33 -15 -13 -15 -13 -29 34 -6 19 5 28 19 16 7 -5 15 -7 18 -3z m-5915 -54 c2 -12 -2 -31 -8 -43 -9 -17 -14 -19 -26 -9 -14 12 -19 60 -7 73 13 13 38 1 41 -21z m7219 -37 c-3 -8 -1 -17 6 -19 7 -2 9 -8 5 -12 -4 -4 -17 0 -30 9 -19 13 -20 16 -5 16 10 0 15 5 12 10 -3 6 -1 10 5 10 7 0 10 -6 7 -14z m-7262 -195 c-3 -6 -14 -11 -23 -11 -15 1 -15 2 2 15 21 16 32 13 21 -4z m7370 -31 c3 -5 1 -10 -4 -10 -6 0 -11 5 -11 10 0 6 2 10 4 10 3 0 8 -4 11 -10z m-7437 -114 c-8 -6 -18 -21 -22 -34 -4 -12 -12 -22 -17 -22 -6 0 -7 6 -1 16 9 17 -6 64 -20 64 -5 0 -8 5 -8 11 0 7 10 9 24 5 15 -4 28 -1 32 6 5 8 11 4 18 -11 8 -18 7 -26 -6 -35z m-37 -113 c-4 -14 -15 -27 -25 -29 -17 -2 -17 -2 0 17 9 10 13 19 8 19 -7 0 15 19 23 20 1 0 -2 -12 -6 -27z m9 -93 c0 -5 -4 -10 -10 -10 -5 0 -10 5 -10 10 0 6 5 10 10 10 6 0 10 -4 10 -10z m-10 -66 c0 -8 -4 -12 -10 -9 -5 3 -10 10 -10 16 0 5 5 9 10 9 6 0 10 -7 10 -16z m3970 -44 c12 -23 6 -40 -15 -40 -19 0 -27 17 -20 40 8 26 21 25 35 0z m1510 0 c6 -11 9 -20 6 -20 -2 0 -11 -3 -19 -6 -15 -5 -31 21 -21 37 9 15 23 10 34 -11z m-5524 -25 c4 -8 3 -23 0 -32 -6 -15 -8 -15 -16 -3 -6 8 -10 11 -10 5 0 -5 -4 -4 -9 4 -6 9 -5 19 2 27 16 18 26 17 33 -1z m-44 -147 c-7 -7 -12 -8 -12 -2 0 14 12 26 19 19 2 -3 -1 -11 -7 -17z m4351 -15 c-4 -11 -3 -14 5 -9 7 4 12 2 12 -3 0 -6 -7 -11 -15 -11 -15 0 -21 21 -8 33 11 11 13 8 6 -10z m-89 -29 c18 -7 12 -24 -10 -24 -8 0 -14 7 -14 15 0 17 2 18 24 9z m-4244 -44 c0 -5 -7 -10 -15 -10 -9 0 -12 -6 -9 -15 4 -8 1 -15 -5 -15 -15 0 -14 23 1 38 15 15 28 16 28 2z m0 -126 c0 -3 -7 -1 -15 6 -8 7 -15 17 -15 22 0 5 7 3 15 -6 8 -8 15 -18 15 -22z m-77 18 c2 7 7 10 11 7 3 -3 0 -19 -9 -35 -8 -16 -15 -35 -15 -41 0 -7 -5 -13 -10 -13 -6 0 -9 20 -8 45 1 34 4 42 14 34 8 -7 13 -6 17 3z m4035 -379 c4 -27 -25 -38 -33 -13 -4 11 -3 25 0 30 10 16 30 6 33 -17z m3942 -104 c0 -5 -4 -9 -10 -9 -5 0 -10 7 -10 16 0 8 5 12 10 9 6 -3 10 -10 10 -16z m-8120 -296 c0 -8 4 -12 8 -9 11 7 46 -34 36 -42 -4 -4 -9 -1 -11 6 -3 6 -12 12 -20 12 -12 0 -13 -3 -4 -14 8 -9 8 -21 0 -45 -15 -43 -36 -40 -30 6 1 6 -9 20 -22 30 -13 10 -21 25 -19 33 11 32 62 51 62 23z m4845 -42 c-3 -6 -11 -11 -17 -11 -6 0 -6 6 2 15 14 17 26 13 15 -4z m376 -53 c5 -18 3 -31 -6 -38 -7 -6 -16 -21 -19 -33 -5 -18 -63 -67 -80 -67 -8 0 0 27 15 51 23 37 39 78 39 100 0 32 42 21 51 -13z m-5091 -28 c-7 -4 -10 -12 -6 -18 3 -6 -3 -13 -14 -17 -11 -3 -20 -14 -20 -23 0 -12 -3 -13 -11 -5 -9 9 -8 18 4 37 12 18 13 26 4 30 -6 3 -2 3 11 0 13 -3 22 -1 22 6 0 6 5 8 11 4 8 -5 8 -9 -1 -14z m-136 -35 c-3 -8 1 -28 9 -45 16 -31 10 -39 -11 -18 -7 7 -12 20 -12 29 0 10 -5 19 -12 21 -15 5 -1 28 17 28 9 0 12 -6 9 -15z m-83 -57 c-7 -18 -9 -14 -9 22 0 36 2 40 9 23 4 -13 5 -33 0 -45z m43 20 c-3 -5 -12 -1 -20 9 -20 27 -17 39 6 18 11 -10 17 -22 14 -27z m5892 15 c-8 -8 -36 5 -36 17 0 7 6 7 21 0 11 -7 18 -14 15 -17z m-5743 -98 c16 -11 18 -18 10 -26 -6 -6 -9 -18 -6 -25 3 -8 -1 -14 -10 -14 -14 0 -33 44 -28 64 1 5 -4 13 -11 18 -10 6 -10 10 2 19 12 9 13 12 1 16 -11 5 -11 7 0 14 11 6 15 1 17 -21 2 -16 13 -37 25 -45z m4994 38 c-3 -5 -2 -28 2 -53 6 -38 3 -52 -19 -90 -15 -25 -30 -44 -34 -42 -3 1 -13 -4 -21 -12 -8 -8 -20 -16 -25 -18 -14 -4 5 -58 20 -58 7 0 8 -6 0 -19 -7 -13 -16 -17 -31 -14 -20 5 -21 3 -15 -20 4 -16 2 -27 -4 -27 -5 0 -10 -6 -10 -13 0 -45 -62 -102 -75 -70 -3 9 2 29 10 46 8 16 15 35 15 40 0 6 7 18 15 27 8 9 15 39 16 72 l2 56 36 -1 c31 -2 36 1 43 28 12 48 39 149 43 163 3 6 12 12 20 12 9 0 14 -3 12 -7z m963 -8 c9 -11 9 -18 -2 -34 -15 -21 -15 -21 -37 3 -22 23 -22 25 -4 35 24 14 28 14 43 -4z m-6151 -28 c0 -21 -1 -21 -9 -2 -12 28 -12 37 0 30 6 -3 10 -16 9 -28z m268 -37 c-10 -36 -12 -38 -24 -20 -22 31 -2 90 23 69 8 -7 8 -20 1 -49z m-257 -46 c0 -8 -19 -13 -24 -6 -3 5 1 9 9 9 8 0 15 -2 15 -3z m342 -61 c-2 -13 -9 -23 -14 -23 -5 0 -7 4 -4 8 2 4 1 14 -4 22 -5 8 -4 22 2 34 11 20 11 20 18 1 4 -10 5 -29 2 -42z m-49 23 c3 -8 -1 -20 -9 -27 -11 -9 -12 -14 -3 -20 9 -5 1 -12 -22 -22 -41 -17 -53 -11 -21 10 14 10 22 26 22 44 0 31 23 41 33 15z m-135 -43 c-10 -12 -38 -18 -38 -8 0 2 5 15 12 29 10 24 12 24 24 8 9 -12 9 -21 2 -29z m82 3 c0 -3 -23 -2 -55 3 -5 1 -3 5 4 10 13 8 51 -2 51 -13z m6255 -46 c3 -5 1 -10 -4 -10 -6 0 -11 5 -11 10 0 6 2 10 4 10 3 0 8 -4 11 -10z m-6001 -102 c-10 -16 -22 11 -16 35 5 20 5 20 14 -2 4 -13 5 -27 2 -33z m6060 44 c2 -4 1 -14 -5 -22 -7 -13 -9 -12 -9 2 0 9 -6 19 -12 21 -8 3 -7 6 4 6 9 1 19 -3 22 -7z m-6154 -38 c0 -8 -4 -12 -10 -9 -5 3 -10 10 -10 16 0 5 5 9 10 9 6 0 10 -7 10 -16z m135 -4 c15 -16 15 -20 3 -15 -11 4 -17 -2 -21 -22 -6 -32 -41 -43 -51 -16 -5 13 -4 14 9 3 12 -10 15 -10 15 4 0 10 -13 21 -30 27 -32 12 -40 29 -14 29 9 0 22 -8 29 -17 11 -15 15 -15 29 -4 9 7 13 17 10 22 -10 16 2 9 21 -11z m-85 -70 c0 -5 -4 -10 -10 -10 -5 0 -10 5 -10 10 0 6 5 10 10 10 6 0 10 -4 10 -10z m4472 -12 c23 -18 27 -41 11 -57 -8 -8 -12 -23 -9 -35 3 -12 -1 -34 -9 -50 -8 -16 -15 -38 -15 -49 0 -12 -20 -40 -47 -65 -41 -38 -48 -41 -51 -25 -2 11 11 45 28 77 16 32 30 67 30 79 0 11 4 34 10 51 5 17 12 43 15 59 6 30 14 33 37 15z m-4425 -34 c-3 -3 -12 -4 -19 -1 -8 3 -5 6 6 6 11 1 17 -2 13 -5z m73 -2 c0 -14 -11 -21 -26 -15 -21 8 -17 23 6 23 11 0 20 -4 20 -8z m-65 -22 c3 -5 1 -10 -4 -10 -6 0 -11 5 -11 10 0 6 2 10 4 10 3 0 8 -4 11 -10z m184 -99 c9 -16 7 -17 -14 -13 -25 4 -31 13 -18 25 11 12 22 8 32 -12z m106 -90 c3 -5 2 -12 -3 -15 -5 -3 -9 1 -9 9 0 17 3 19 12 6z m260 -131 c3 -5 1 -10 -4 -10 -6 0 -11 5 -11 10 0 6 2 10 4 10 3 0 8 -4 11 -10z m330 -51 c11 -17 -1 -21 -15 -4 -8 9 -8 15 -2 15 6 0 14 -5 17 -11z m135 -20 c0 -6 -4 -7 -10 -4 -5 3 -10 11 -10 16 0 6 5 7 10 4 6 -3 10 -11 10 -16z m-360 -29 c12 -7 12 -12 2 -22 -10 -10 -15 -10 -22 2 -19 29 -9 39 20 20z m3611 -91 c7 -15 5 -17 -13 -16 -34 2 -53 24 -38 42 14 17 33 7 51 -26z m-3331 -38 c0 -17 -18 -21 -24 -6 -3 9 0 15 9 15 8 0 15 -4 15 -9z m75 -13 c5 4 5 2 1 -5 -4 -7 -13 -10 -21 -6 -9 3 -15 -1 -15 -10 0 -8 -9 -17 -20 -20 -18 -4 -20 -2 -14 16 3 12 13 28 22 35 14 10 19 10 28 -3 6 -8 15 -11 19 -7z m-115 -3 c0 -8 -2 -15 -4 -15 -2 0 -6 7 -10 15 -3 8 -1 15 4 15 6 0 10 -7 10 -15z m405 -225 c3 -5 1 -10 -4 -10 -6 0 -11 5 -11 10 0 6 2 10 4 10 3 0 8 -4 11 -10z m50 -20 c3 -5 -1 -10 -10 -10 -9 0 -13 5 -10 10 3 6 8 10 10 10 2 0 7 -4 10 -10z m411 -214 c14 4 16 3 5 -4 -7 -5 -10 -15 -7 -21 4 -6 3 -11 -3 -11 -6 0 -15 9 -21 19 -12 23 -13 42 -2 23 5 -7 17 -10 28 -6z m219 -127 c11 -16 1 -19 -13 -3 -7 8 -8 14 -3 14 5 0 13 -5 16 -11z m5905 -344 c9 -10 9 -15 1 -15 -6 0 -11 5 -11 10 0 6 -5 10 -11 10 -6 0 -8 -9 -3 -22 6 -21 6 -21 -10 -5 -18 18 -14 37 8 37 8 0 19 -7 26 -15z m-52 -483 c6 -18 -15 -14 -22 4 -4 10 -1 14 6 12 6 -2 14 -10 16 -16z m-28 -12 c0 -5 -5 -10 -11 -10 -5 0 -7 5 -4 10 3 6 8 10 11 10 2 0 4 -4 4 -10z m-5160 -105 c-7 -9 -15 -13 -17 -11 -7 7 7 26 19 26 6 0 6 -6 -2 -15z m-64 -77 c-3 -7 -9 -20 -12 -28 -7 -17 -63 -64 -69 -58 -2 2 7 16 21 31 14 15 22 27 18 27 -4 0 1 9 11 20 20 22 40 27 31 8z m5314 -177 c0 -5 -11 -8 -25 -7 -33 1 -33 16 0 16 14 0 25 -4 25 -9z m-43 -77 c-9 -9 -28 6 -21 18 4 6 10 6 17 -1 6 -6 8 -13 4 -17z m-12 -414 c-3 -5 -12 -10 -18 -10 -7 0 -6 4 3 10 19 12 23 12 15 0z m-345 -510 c0 -5 -5 -10 -11 -10 -5 0 -7 5 -4 10 3 6 8 10 11 10 2 0 4 -4 4 -10z m70 -146 c0 -2 -7 -4 -15 -4 -8 0 -15 4 -15 10 0 5 7 7 15 4 8 -4 15 -8 15 -10z m2004 -88 c-8 -20 -34 -29 -34 -11 0 7 8 16 18 18 9 3 18 5 19 6 1 0 0 -5 -3 -13z m41 -27 c12 -19 -5 -23 -22 -6 -16 16 -16 17 -1 17 9 0 20 -5 23 -11z m195 -159 c0 -5 -7 -7 -15 -4 -8 4 -15 8 -15 10 0 2 7 4 15 4 8 0 15 -4 15 -10z m538 -265 c-3 -3 -9 2 -12 12 -6 14 -5 15 5 6 7 -7 10 -15 7 -18z m-1103 -123 c-8 -8 -25 10 -19 20 4 6 9 5 15 -3 4 -7 6 -15 4 -17z m1112 -144 c-3 -8 -6 -5 -6 6 -1 11 2 17 5 13 3 -3 4 -12 1 -19z"/>
<path d="M13630 13891 c0 -5 7 -14 15 -21 16 -14 18 -10 9 14 -6 17 -24 22 -24 7z"/>
<path d="M13635 13840 c4 -6 11 -8 16 -5 14 9 -3 -27 -24 -52 -11 -12 -24 -20 -28 -17 -4 2 -10 0 -14 -6 -4 -6 7 -13 25 -16 45 -9 52 -29 7 -21 -30 5 -35 3 -30 -10 5 -12 2 -15 -10 -10 -10 4 -21 -3 -31 -19 -11 -15 -26 -24 -42 -24 -19 0 -25 -4 -20 -15 4 -11 -2 -15 -20 -15 -32 0 -80 -24 -87 -45 -7 -16 -42 -21 -51 -6 -9 14 -43 20 -42 7 0 -6 -3 -11 -7 -11 -5 0 -15 -12 -23 -27 -8 -16 -20 -29 -27 -29 -7 -1 -23 -3 -36 -4 -23 -2 -29 -8 -63 -69 -10 -17 -18 -25 -18 -18 0 6 -5 12 -11 12 -6 0 -8 -7 -5 -17 4 -9 2 -20 -5 -23 -6 -4 -12 -20 -12 -36 -1 -16 -10 -39 -21 -51 -10 -11 -17 -24 -16 -28 1 -4 -4 -11 -10 -15 -8 -5 -9 -13 -4 -21 6 -11 9 -96 3 -125 -4 -22 2 -33 16 -28 8 4 15 1 15 -5 0 -6 -4 -11 -10 -11 -5 0 -10 -5 -10 -12 0 -9 3 -9 12 0 16 16 28 15 28 -2 0 -35 72 -52 117 -28 12 7 29 12 37 12 9 0 16 7 16 15 0 17 11 20 25 6 16 -16 94 7 134 39 19 17 42 30 49 30 7 0 10 5 6 11 -4 7 5 10 27 9 49 -4 78 9 85 37 8 28 24 26 41 -7 7 -13 22 -28 35 -34 23 -9 22 -9 -7 -16 l-30 -7 37 -16 c46 -21 48 -21 48 -2 0 32 21 15 77 -64 2 -3 9 1 15 7 17 17 31 15 24 -4 -5 -12 -2 -15 10 -10 9 4 22 2 28 -3 7 -6 18 -6 25 -1 12 7 11 14 -3 44 -9 20 -14 45 -11 56 5 14 2 20 -9 20 -18 0 -20 8 -7 29 5 7 13 11 18 8 5 -3 10 3 10 14 1 10 -3 19 -8 19 -6 0 -7 -4 -4 -10 3 -5 -5 -12 -18 -15 -23 -6 -37 -25 -51 -68 -4 -14 2 -21 23 -28 28 -10 48 -36 36 -47 -3 -3 -5 1 -5 9 0 11 -2 11 -10 -1 -8 -13 -10 -12 -10 3 0 19 -26 23 -33 5 -2 -8 -8 -9 -13 -4 -5 5 -4 11 4 13 20 7 14 26 -7 20 -14 -3 -17 0 -14 14 4 13 0 19 -12 19 -12 0 -15 5 -11 16 3 9 6 22 6 30 0 8 7 14 15 14 8 0 15 -4 15 -10 0 -5 5 -10 11 -10 6 0 9 7 5 15 -3 9 0 15 8 15 8 0 24 9 37 20 20 16 21 19 7 20 -9 0 -20 -5 -23 -11 -5 -7 -13 -5 -26 7 -10 9 -25 14 -33 11 -9 -4 -18 -2 -21 3 -4 7 -13 6 -26 0 -13 -8 -25 -7 -39 0 -17 9 -20 21 -20 75 0 55 3 66 22 79 15 11 26 12 32 6 16 -16 23 -12 30 15 6 25 36 35 36 13 1 -20 30 24 30 44 0 10 6 21 14 24 8 3 17 21 20 39 4 19 14 38 22 43 9 5 14 19 12 33 -3 21 -7 24 -40 21 -32 -3 -37 -1 -32 13 4 9 -2 25 -13 38 -11 12 -26 32 -32 45 -14 27 -31 29 -24 3 3 -10 0 -22 -6 -25 -6 -4 -13 4 -17 19 -3 14 -10 25 -15 25 -5 0 -9 7 -9 15 0 8 5 15 10 15 6 0 10 -4 10 -10 0 -5 5 -10 10 -10 6 0 5 8 -2 20 -17 26 -32 25 -47 -2 -9 -18 -10 -18 -5 -3 17 54 17 55 -10 55 -16 0 -25 -4 -21 -10z m15 -80 c0 -5 -8 -10 -17 -10 -15 0 -16 2 -3 10 19 12 20 12 20 0z m130 -70 c0 -5 -4 -10 -10 -10 -5 0 -10 5 -10 10 0 6 5 10 10 10 6 0 10 -4 10 -10z"/>
<path d="M13750 13429 c0 -5 5 -7 10 -4 6 3 10 8 10 11 0 2 -4 4 -10 4 -5 0 -10 -5 -10 -11z"/>
<path d="M13702 13080 c-10 -16 -10 -20 2 -20 7 0 16 9 19 20 3 11 2 20 -2 20 -3 0 -12 -9 -19 -20z"/>
<path d="M12710 12190 c0 -5 5 -10 11 -10 5 0 7 5 4 10 -3 6 -8 10 -11 10 -2 0 -4 -4 -4 -10z"/>
<path d="M11330 11630 c0 -5 5 -10 11 -10 5 0 7 5 4 10 -3 6 -8 10 -11 10 -2 0 -4 -4 -4 -10z"/>
<path d="M15040 10960 c0 -5 5 -10 11 -10 5 0 7 5 4 10 -3 6 -8 10 -11 10 -2 0 -4 -4 -4 -10z"/>
<path d="M16023 10333 c-18 -7 -16 -33 2 -33 8 0 15 2 15 4 0 2 3 11 6 20 6 16 0 19 -23 9z"/>
<path d="M15767 10232 c-22 -49 -21 -52 3 -52 22 0 28 9 32 54 4 43 -16 42 -35 -2z"/>
<path d="M15930 10098 c-26 -9 -59 -45 -60 -64 0 -6 12 -16 27 -23 25 -11 29 -10 45 11 9 13 24 31 33 41 9 10 15 20 13 21 -1 1 -10 7 -18 13 -10 7 -23 8 -40 1z"/>
<path d="M15678 9966 c-31 -38 -35 -61 -14 -69 14 -6 66 41 66 59 0 6 -6 18 -12 27 -12 16 -16 14 -40 -17z"/>
<path d="M16060 9830 c0 -16 7 -20 30 -20 36 0 41 25 8 34 -35 9 -38 8 -38 -14z"/>
<path d="M15819 9730 c-11 -36 -10 -42 6 -54 24 -17 56 -7 66 21 5 14 0 27 -17 47 -14 14 -29 26 -34 26 -5 0 -15 -18 -21 -40z"/>
<path d="M15432 9715 c-21 -45 -12 -87 12 -62 24 25 47 68 41 77 -12 19 -42 10 -53 -15z"/>
<path d="M15884 9523 c-25 -25 -17 -59 23 -92 51 -42 70 -40 75 6 4 34 -14 91 -30 94 -34 7 -55 4 -68 -8z"/>
<path d="M15608 9499 c-11 -6 -18 -21 -17 -37 1 -21 2 -22 6 -7 3 11 15 28 26 37 24 19 13 24 -15 7z"/>
<path d="M15385 9430 c-4 -6 -9 -29 -11 -51 -3 -33 -1 -39 15 -39 11 0 26 -3 35 -6 10 -4 17 2 22 20 5 21 0 33 -24 57 -20 20 -32 27 -37 19z"/>
<path d="M15315 9420 c3 -5 8 -10 11 -10 2 0 4 5 4 10 0 6 -5 10 -11 10 -5 0 -7 -4 -4 -10z"/>
<path d="M15725 9420 c-3 -5 -14 -10 -25 -10 -16 0 -30 -18 -30 -40 0 -14 31 -20 50 -10 12 7 18 20 18 40 -1 32 -3 36 -13 20z"/>
<path d="M15264 9412 c-19 -12 0 -43 34 -58 24 -10 31 -10 26 -1 -15 26 -37 46 -45 41 -5 -3 -6 2 -3 10 7 18 4 19 -12 8z"/>
<path d="M15110 9337 c0 -8 -6 -17 -14 -20 -15 -6 -37 -82 -29 -102 3 -9 16 0 39 25 36 40 44 79 19 100 -12 10 -15 10 -15 -3z"/>
<path d="M16042 9238 c-18 -18 -15 -33 18 -68 34 -36 50 -32 50 11 0 58 -36 89 -68 57z"/>
<path d="M15721 9204 c0 -11 3 -14 6 -6 3 7 2 16 -1 19 -3 4 -6 -2 -5 -13z"/>
<path d="M15475 9182 c-26 -6 -45 -21 -45 -38 0 -18 59 -84 75 -84 14 0 38 87 29 102 -9 14 -39 25 -59 20z"/>
<path d="M15750 9145 c0 -8 2 -15 4 -15 2 0 6 7 10 15 3 8 1 15 -4 15 -6 0 -10 -7 -10 -15z"/>
<path d="M15152 9115 c-11 -12 -10 -15 3 -15 8 0 15 7 15 15 0 18 -2 18 -18 0z"/>
<path d="M15201 9127 c-1 -4 6 -19 15 -33 15 -22 15 -28 3 -51 -12 -23 -11 -27 10 -44 30 -24 62 -24 84 1 16 19 15 22 -4 55 -12 19 -27 35 -34 35 -7 0 -16 8 -20 18 -7 16 -8 15 -15 -3 -8 -18 -9 -18 -9 -2 -1 10 -5 16 -10 13 -5 -4 -12 0 -14 6 -3 7 -6 9 -6 5z"/>
<path d="M15801 9123 l-23 -5 28 -29 c31 -33 71 -41 55 -11 -5 9 -12 25 -15 35 -3 9 -9 16 -13 16 -4 -1 -19 -4 -32 -6z"/>
<path d="M14890 9018 c0 -5 11 -8 25 -8 14 0 25 3 25 8 0 4 -11 7 -25 7 -14 0 -25 -3 -25 -7z"/>
<path d="M14980 9015 c0 -8 -11 -17 -25 -21 -19 -5 -25 -13 -25 -35 0 -19 5 -29 15 -29 8 0 15 -6 15 -12 0 -7 7 -3 15 9 9 12 15 26 14 30 -4 24 2 53 12 53 6 0 8 -9 4 -22 -6 -18 -5 -20 5 -12 15 15 4 54 -16 54 -8 0 -14 -7 -14 -15z"/>
<path d="M15894 8922 c-9 -14 -9 -22 1 -35 11 -16 13 -16 19 -1 9 22 8 26 -5 18 -8 -4 -9 0 -4 15 8 26 4 27 -11 3z"/>
<path d="M15590 8882 c0 -5 9 -20 20 -33 l20 -24 -2 30 c-2 19 -9 31 -20 33 -10 2 -18 -1 -18 -6z"/>
<path d="M16061 8864 c0 -11 3 -14 6 -6 3 7 2 16 -1 19 -3 4 -6 -2 -5 -13z"/>
<path d="M15334 8862 c-5 -4 -10 -26 -9 -50 0 -35 6 -47 30 -67 31 -25 80 -30 80 -8 0 6 3 14 7 18 3 4 0 22 -8 41 -8 19 -14 37 -13 40 2 14 -9 13 -21 -1 -10 -12 -10 -19 -2 -27 17 -17 15 -28 -7 -28 -28 0 -33 25 -11 53 20 25 20 25 -3 31 -28 7 -30 7 -43 -2z"/>
<path d="M15017 8808 c11 -60 21 -74 69 -98 49 -25 73 -27 86 -7 12 18 10 59 -2 52 -6 -4 -17 -1 -25 5 -12 10 -15 9 -15 -9 0 -18 4 -21 20 -16 22 7 25 -2 10 -25 -8 -13 -14 -11 -36 13 -21 23 -25 34 -20 61 8 44 -15 67 -47 47 -15 -10 -22 -11 -25 -2 -9 26 -21 8 -15 -21z m73 -68 c0 -5 -5 -10 -11 -10 -5 0 -7 5 -4 10 3 6 8 10 11 10 2 0 4 -4 4 -10z"/>
<path d="M15483 8785 c0 -15 4 -24 11 -22 6 2 11 12 11 22 0 10 -5 20 -11 22 -7 2 -11 -7 -11 -22z"/>
<path d="M14803 8728 c-25 -12 -32 -63 -13 -99 16 -29 64 -25 89 7 52 66 0 129 -76 92z"/>
<path d="M14746 8675 c4 -8 10 -15 15 -15 4 0 6 7 3 15 -4 8 -10 15 -15 15 -4 0 -6 -7 -3 -15z"/>
<path d="M16150 8612 c0 -56 72 -109 96 -71 6 11 -47 73 -78 90 -15 8 -18 5 -18 -19z"/>
<path d="M15830 8599 c0 -5 5 -7 10 -4 6 3 10 8 10 11 0 2 -4 4 -10 4 -5 0 -10 -5 -10 -11z"/>
<path d="M16509 8577 c-22 -17 -34 -57 -17 -58 31 -3 54 4 65 19 11 13 10 19 -4 34 -19 21 -23 21 -44 5z"/>
<path d="M15807 8566 c-4 -9 -4 -23 -1 -31 5 -13 8 -13 21 1 14 14 14 17 1 30 -14 14 -16 14 -21 0z"/>
<path d="M15166 8539 c-14 -11 -26 -29 -26 -39 0 -25 78 -98 112 -105 32 -7 68 9 68 31 0 8 -4 12 -10 9 -5 -3 -10 -1 -10 4 0 6 -7 11 -15 11 -19 0 -19 9 1 31 19 21 12 49 -10 49 -18 0 -20 -66 -3 -88 5 -7 7 -16 3 -20 -4 -4 -13 1 -20 11 -7 9 -21 17 -30 17 -14 0 -16 7 -10 49 7 58 -10 72 -50 40z"/>
<path d="M15560 8530 c0 -19 7 -33 20 -40 15 -8 18 -17 13 -41 -6 -30 -5 -31 16 -19 41 22 38 46 -17 108 -26 29 -32 28 -32 -8z m60 -74 c0 -3 -4 -8 -10 -11 -5 -3 -10 -1 -10 4 0 6 5 11 10 11 6 0 10 -2 10 -4z"/>
<path d="M15490 8536 c0 -8 5 -18 10 -21 15 -10 12 -35 -4 -29 -25 10 -26 -13 -1 -36 21 -19 25 -21 30 -8 7 19 -11 95 -25 103 -6 3 -10 -1 -10 -9z"/>
<path d="M14910 8517 c0 -20 -11 -22 -28 -5 -10 10 -11 5 -6 -22 6 -33 30 -62 94 -114 18 -14 29 -17 49 -9 22 7 26 15 24 43 -1 26 -11 41 -40 66 -21 18 -45 33 -53 34 -9 0 -21 5 -28 12 -9 9 -12 8 -12 -5z"/>
<path d="M14603 8484 c-8 -8 -9 -15 -3 -19 6 -3 10 0 10 7 0 9 3 9 10 -2 5 -8 10 -10 10 -5 0 23 -15 33 -27 19z"/>
<path d="M14660 8437 c-54 -27 -65 -62 -29 -96 31 -28 65 -26 94 5 37 40 40 61 13 89 -13 14 -25 25 -28 25 -3 0 -25 -10 -50 -23z"/>
<path d="M16247 8358 c-11 -5 -17 -21 -17 -42 0 -27 6 -36 40 -55 41 -23 59 -20 94 15 25 24 20 31 -42 62 -42 22 -63 27 -75 20z"/>
<path d="M15930 8308 c0 -9 -7 -21 -15 -28 -18 -15 -20 -43 -3 -38 13 5 33 67 24 76 -3 3 -6 -2 -6 -10z"/>
<path d="M16610 8293 c0 -7 -8 -13 -17 -13 -14 0 -12 -4 7 -25 27 -28 76 -35 66 -9 -3 9 -6 20 -6 26 0 5 -6 8 -12 5 -7 -2 -18 3 -25 12 -8 11 -12 12 -13 4z"/>
<path d="M15666 8283 c-3 -3 -6 -19 -6 -34 0 -39 38 -78 81 -85 31 -5 37 -3 42 15 9 36 -3 59 -41 77 -21 9 -44 20 -53 25 -9 5 -19 5 -23 2z"/>
<path d="M16034 8266 c-6 -7 -14 -22 -18 -34 -3 -12 -9 -31 -12 -42 -4 -17 -1 -20 24 -20 55 0 81 59 42 93 -24 20 -22 20 -36 3z"/>
<path d="M14584 8244 c3 -8 6 -18 6 -20 0 -2 5 -4 10 -4 16 0 11 27 -6 34 -12 5 -15 2 -10 -10z"/>
<path d="M15353 8228 c2 -19 -2 -23 -23 -20 -13 1 -27 8 -32 14 -4 7 -9 10 -11 8 -11 -12 39 -94 67 -111 76 -47 165 1 105 57 -11 10 -32 31 -47 47 -33 34 -63 36 -59 5z m47 -43 c0 -8 -4 -15 -9 -15 -13 0 -22 16 -14 24 11 11 23 6 23 -9z m-10 -35 c0 -5 -5 -10 -11 -10 -5 0 -7 5 -4 10 3 6 8 10 11 10 2 0 4 -4 4 -10z m50 -10 c0 -15 -6 -20 -27 -19 -17 1 -21 3 -10 6 9 2 17 11 17 19 0 8 5 14 10 14 6 0 10 -9 10 -20z"/>
<path d="M14751 8219 c-20 -17 -21 -20 -7 -46 15 -30 109 -123 124 -123 5 0 19 12 31 26 23 26 23 27 4 53 -11 14 -31 28 -44 31 -13 3 -26 15 -28 25 -8 46 -46 61 -80 34z"/>
<path d="M15066 8233 c-4 -5 -17 -8 -29 -8 -39 0 -31 -32 22 -86 52 -53 100 -70 129 -47 30 25 -6 92 -70 130 -31 20 -41 22 -52 11z m51 -79 c4 -12 8 -13 14 -3 6 10 12 9 28 -5 30 -27 26 -33 -24 -34 -35 0 -45 4 -50 19 -11 34 19 56 32 23z"/>
<path d="M15600 8190 c0 -5 5 -10 10 -10 6 0 10 5 10 10 0 6 -4 10 -10 10 -5 0 -10 -4 -10 -10z"/>
<path d="M14505 8150 c3 -5 8 -10 11 -10 2 0 4 5 4 10 0 6 -5 10 -11 10 -5 0 -7 -4 -4 -10z"/>
<path d="M15682 8148 c5 -15 28 -23 28 -10 0 5 -7 13 -16 16 -10 4 -14 1 -12 -6z"/>
<path d="M14522 8117 c-37 -38 -40 -64 -13 -96 14 -16 26 -20 43 -16 25 7 58 62 58 97 0 21 -25 47 -46 48 -5 0 -24 -15 -42 -33z"/>
<path d="M16385 8071 c-25 -6 -30 -11 -28 -33 2 -35 27 -71 59 -89 23 -12 27 -11 40 6 8 10 14 37 14 60 0 35 -4 44 -25 53 -14 7 -27 11 -28 11 -1 -1 -15 -4 -32 -8z"/>
<path d="M14420 8050 c0 -5 5 -10 10 -10 6 0 10 5 10 10 0 6 -4 10 -10 10 -5 0 -10 -4 -10 -10z"/>
<path d="M14450 8041 c0 -6 5 -13 10 -16 6 -3 10 1 10 9 0 9 -4 16 -10 16 -5 0 -10 -4 -10 -9z"/>
<path d="M16110 8005 c-9 -11 -10 -19 -3 -26 8 -8 13 -5 18 11 9 28 2 35 -15 15z"/>
<path d="M16710 8005 c0 -8 5 -15 10 -15 6 0 10 7 10 15 0 8 -4 15 -10 15 -5 0 -10 -7 -10 -15z"/>
<path d="M15773 8000 c-18 -7 -23 -17 -23 -45 0 -32 4 -38 35 -51 45 -18 74 -18 97 3 11 9 18 11 18 5 0 -7 5 -12 10 -12 33 0 -28 75 -79 96 -18 8 -34 14 -35 13 0 0 -11 -4 -23 -9z"/>
<path d="M16154 7959 c-38 -11 -61 -36 -47 -50 5 -5 33 -12 61 -16 49 -5 52 -4 62 21 13 34 13 72 0 41 -7 -18 -8 -19 -15 -2 -8 19 -15 20 -61 6z"/>
<path d="M15470 7950 c0 -5 -9 -10 -20 -10 -18 0 -19 -2 -8 -16 40 -49 88 -88 88 -73 0 7 -11 22 -25 35 -33 30 -32 33 9 24 19 -4 37 -5 40 -2 8 7 7 2 -4 -37 -13 -45 1 -61 51 -61 49 0 60 27 28 73 -31 44 -37 47 -91 47 -36 0 -48 4 -48 15 0 8 -4 15 -10 15 -5 0 -10 -4 -10 -10z"/>
<path d="M14430 7929 c0 -5 5 -7 10 -4 6 3 10 8 10 11 0 2 -4 4 -10 4 -5 0 -10 -5 -10 -11z"/>
<path d="M14470 7919 c7 -11 14 -18 17 -15 8 8 -5 36 -17 36 -7 0 -7 -6 0 -21z"/>
<path d="M14611 7929 c-17 -7 -21 -13 -13 -22 5 -6 16 -34 24 -62 13 -43 20 -53 58 -72 61 -32 81 -29 108 14 l24 37 -28 20 c-16 12 -37 31 -47 43 -11 12 -25 19 -31 17 -7 -3 -21 4 -31 16 -20 22 -29 23 -64 9z m149 -128 c0 -11 -31 -24 -39 -16 -3 3 1 10 9 15 19 12 30 12 30 1z"/>
<path d="M14910 7933 c-8 -2 -21 -7 -29 -9 -23 -7 -7 -14 45 -21 27 -3 51 -9 52 -14 6 -16 22 -9 22 9 0 28 -51 48 -90 35z"/>
<path d="M15187 7906 c-3 -7 9 -28 27 -45 36 -35 46 -38 46 -15 0 14 7 15 41 10 l40 -6 -28 35 c-29 36 -51 43 -70 24 -8 -8 -17 -8 -31 0 -15 8 -21 7 -25 -3z"/>
<path d="M15001 7869 c-14 -5 -31 -7 -39 -4 -27 10 -7 -29 25 -48 31 -18 32 -18 54 4 17 17 23 19 30 8 4 -7 11 -10 15 -6 9 8 -35 57 -50 56 -6 0 -22 -5 -35 -10z"/>
<path d="M15790 7870 c0 -5 4 -10 9 -10 6 0 13 5 16 10 3 6 -1 10 -9 10 -9 0 -16 -4 -16 -10z"/>
<path d="M15342 7820 c-7 -11 -18 -17 -27 -14 -8 4 -15 1 -15 -5 0 -6 7 -11 16 -11 24 0 54 19 54 35 0 21 -13 19 -28 -5z"/>
<path d="M16960 7751 c0 -16 8 -39 19 -52 16 -20 21 -21 35 -10 23 19 20 33 -12 64 -36 34 -42 34 -42 -2z"/>
<path d="M16522 7753 c-11 -19 3 -59 23 -67 8 -3 12 10 13 40 2 47 -17 61 -36 27z"/>
<path d="M16260 7735 c0 -8 5 -15 10 -15 6 0 10 7 10 15 0 8 -4 15 -10 15 -5 0 -10 -7 -10 -15z"/>
<path d="M15924 7697 l-26 -23 32 -32 c36 -37 49 -37 67 -1 7 13 19 23 28 21 8 -2 15 4 15 12 0 10 -6 13 -15 10 -9 -4 -15 0 -15 9 0 15 -20 27 -45 27 -8 0 -26 -10 -41 -23z"/>
<path d="M16646 7711 c-4 -5 -2 -12 3 -15 5 -4 12 -2 15 3 4 5 2 12 -3 15 -5 4 -12 2 -15 -3z"/>
<path d="M14380 7681 c0 -5 5 -13 10 -16 6 -3 10 -2 10 4 0 5 -4 13 -10 16 -5 3 -10 2 -10 -4z"/>
<path d="M16234 7675 c-5 -12 3 -26 26 -46 29 -25 60 -38 60 -24 0 12 -35 75 -41 75 -4 0 -14 3 -23 6 -10 4 -18 -1 -22 -11z"/>
<path d="M14810 7645 c-28 -29 -31 -37 -20 -50 18 -22 23 -19 44 20 16 28 23 34 40 29 12 -4 27 -15 34 -25 7 -11 19 -19 25 -19 9 0 9 2 1 8 -6 4 -14 16 -18 28 -6 18 -43 44 -65 44 -4 0 -22 -16 -41 -35z"/>
<path d="M15646 7671 c-14 -22 37 -80 106 -119 34 -19 39 -20 53 -5 19 19 16 58 -5 58 -9 0 -14 8 -12 18 3 20 -9 22 -26 5 -6 -6 -15 -8 -19 -3 -5 4 -2 10 5 12 18 7 15 21 -5 27 -48 14 -91 17 -97 7z m38 -22 c-8 -14 -24 -10 -24 6 0 9 6 12 15 9 8 -4 12 -10 9 -15z m46 1 c0 -5 -2 -10 -4 -10 -3 0 -8 5 -11 10 -3 6 -1 10 4 10 6 0 11 -4 11 -10z"/>
<path d="M14372 7612 c-28 -19 -28 -28 2 -36 13 -3 31 -9 40 -12 21 -8 20 12 -2 40 -16 21 -19 22 -40 8z"/>
<path d="M14960 7604 c0 -23 -3 -25 -24 -20 -16 4 -30 0 -40 -10 -27 -26 -18 -36 32 -33 49 2 82 21 82 47 0 14 -27 41 -42 42 -5 0 -8 -12 -8 -26z"/>
<path d="M15480 7621 c0 -6 -7 -11 -15 -11 -8 0 -15 -4 -15 -9 0 -14 65 -41 97 -41 l28 1 -24 20 c-16 13 -33 18 -48 14 -23 -5 -33 10 -11 17 9 3 9 6 0 12 -7 4 -12 2 -12 -3z"/>
<path d="M14536 7592 c-22 -35 39 -157 89 -180 46 -21 63 -15 74 25 6 20 7 42 3 49 -16 28 -86 74 -114 74 -20 0 -31 6 -37 22 -5 14 -10 17 -15 10z"/>
<path d="M15290 7576 c0 -8 -8 -17 -17 -19 -11 -3 -7 -5 10 -6 27 -1 38 21 17 34 -5 3 -10 -1 -10 -9z"/>
<path d="M17078 7528 c-22 -17 -38 -80 -26 -101 11 -20 80 -23 96 -4 24 30 22 53 -7 85 -33 36 -40 38 -63 20z"/>
<path d="M16759 7473 c-11 -13 -11 -17 -1 -20 6 -3 9 -10 6 -15 -4 -7 -2 -8 5 -4 6 4 8 12 5 18 -4 6 -1 14 6 18 7 5 8 10 2 14 -5 3 -16 -2 -23 -11z"/>
<path d="M16516 7431 c-11 -17 1 -58 25 -82 22 -22 39 -18 39 9 0 26 -55 89 -64 73z"/>
<path d="M15410 7402 c0 -38 8 -44 73 -47 l51 -3 -27 24 c-16 13 -35 24 -44 24 -9 0 -25 7 -35 17 -17 15 -18 14 -18 -15z"/>
<path d="M16430 7405 c0 -15 4 -24 10 -20 6 3 10 12 10 20 0 8 -4 17 -10 20 -6 4 -10 -5 -10 -20z"/>
<path d="M15016 7393 c1 -16 2 -33 3 -39 0 -7 17 -24 36 -38 l35 -27 -3 23 c-2 19 2 23 23 20 35 -4 47 -19 32 -42 -8 -13 -8 -21 -1 -25 14 -9 61 3 82 22 20 19 23 53 4 53 -8 0 -24 12 -38 26 -13 15 -38 33 -56 40 -40 17 -44 17 -37 1 3 -8 -3 -20 -12 -28 -14 -12 -19 -10 -40 14 -29 34 -30 34 -28 0z"/>
<path d="M15860 7395 c0 -13 79 -78 127 -103 27 -15 60 -15 68 -2 3 6 -1 7 -9 4 -9 -3 -16 -2 -16 4 0 6 5 12 10 14 6 2 -7 21 -29 42 l-41 40 10 -35 c12 -42 13 -39 -4 -39 -7 0 -19 7 -27 16 -10 13 -10 17 2 26 11 8 10 9 -5 4 -11 -4 -23 -1 -28 6 -12 19 -10 30 5 22 6 -4 9 -4 5 1 -5 5 -21 10 -38 12 -21 2 -30 -1 -30 -12z"/>
<path d="M16192 7385 c0 -16 2 -22 5 -12 2 9 2 23 0 30 -3 6 -5 -1 -5 -18z"/>
<path d="M14467 7359 c-18 -10 -15 -29 5 -29 6 0 8 3 5 7 -4 3 -2 12 4 20 13 15 10 16 -14 2z"/>
<path d="M16277 7326 c-19 -28 -9 -41 24 -31 13 5 19 14 17 28 -4 30 -23 31 -41 3z"/>
<path d="M15752 7323 c2 -10 13 -19 26 -21 24 -4 29 7 10 26 -18 18 -40 15 -36 -5z"/>
<path d="M14737 7300 c-26 -28 -27 -31 -13 -58 16 -30 66 -70 66 -52 0 5 10 9 23 9 16 -1 18 -2 5 -6 -30 -7 -20 -22 19 -29 29 -5 39 -3 50 11 17 24 17 39 -1 32 -10 -4 -13 -1 -9 9 3 8 12 13 20 9 12 -4 14 0 9 17 -3 13 -6 28 -6 35 0 7 -16 15 -35 19 -19 3 -39 12 -46 20 -18 22 -52 16 -82 -16z m33 -10 c0 -5 -4 -10 -10 -10 -5 0 -10 5 -10 10 0 6 5 10 10 10 6 0 10 -4 10 -10z"/>
<path d="M17210 7267 c0 -8 -9 -22 -20 -32 -11 -10 -20 -22 -20 -26 0 -12 88 -51 110 -47 19 3 19 5 5 32 -8 15 -15 34 -15 41 0 7 -11 20 -25 29 -30 19 -35 20 -35 3z"/>
<path d="M14380 7221 c0 -29 15 -33 16 -5 1 13 -2 24 -7 24 -5 0 -9 -9 -9 -19z"/>
<path d="M16875 7228 c-30 -16 -30 -17 -9 -33 25 -19 78 -19 93 -1 10 12 7 18 -18 30 -35 19 -40 19 -66 4z"/>
<path d="M14435 7199 c9 -43 33 -89 45 -89 6 0 10 -5 10 -11 0 -16 24 -36 38 -31 6 2 12 -1 12 -7 0 -7 10 -9 25 -5 17 4 25 2 25 -7 0 -24 28 26 34 62 6 30 2 38 -27 67 l-34 32 3 -25 c2 -21 0 -24 -12 -14 -7 6 -12 15 -9 19 9 14 -21 30 -70 37 l-47 6 7 -34z"/>
<path d="M15610 7201 c0 -6 -7 -11 -15 -11 -13 0 -14 -4 -5 -20 8 -15 17 -18 39 -14 23 5 30 2 36 -15 3 -12 10 -21 15 -21 5 0 12 -9 15 -20 4 -12 15 -20 30 -20 18 0 22 4 18 20 -3 11 -9 20 -14 20 -5 0 -9 6 -9 13 0 23 -45 64 -78 71 -21 5 -32 4 -32 -3z m100 -59 c0 -13 -12 -22 -22 -16 -10 6 -1 24 13 24 5 0 9 -4 9 -8z"/>
<path d="M16604 7174 c-8 -32 21 -65 82 -93 24 -12 46 -21 49 -21 2 0 2 14 -2 32 -5 25 -3 30 8 23 8 -5 3 4 -11 19 -24 27 -89 66 -109 66 -6 0 -14 -11 -17 -26z"/>
<path d="M15270 7171 c-12 -8 -12 -13 -1 -35 11 -20 12 -28 2 -40 -16 -20 -6 -36 23 -36 12 0 27 -5 34 -12 9 -9 18 -6 38 13 l26 24 18 -22 c30 -37 50 -24 50 32 0 34 -67 55 -107 34 -20 -11 -27 -11 -30 -2 -10 30 -38 53 -53 44z"/>
<path d="M16097 7153 c-13 -13 -7 -21 43 -57 55 -40 75 -44 84 -19 9 23 -58 83 -94 83 -14 0 -30 -3 -33 -7z"/>
<path d="M15900 7135 c7 -8 17 -15 22 -15 5 0 3 7 -6 15 -8 8 -18 15 -22 15 -3 0 -1 -7 6 -15z"/>
<path d="M16420 7130 c0 -5 -7 -7 -15 -4 -9 4 -15 0 -15 -8 0 -14 76 -78 92 -78 16 0 -5 54 -30 77 -28 26 -32 27 -32 13z"/>
<path d="M15940 7100 c0 -5 4 -10 9 -10 5 0 18 -3 28 -7 17 -6 17 -6 1 10 -18 19 -38 22 -38 7z"/>
<path d="M14931 7071 c6 -2 3 -11 -7 -22 -16 -18 -16 -20 -1 -37 9 -10 22 -32 28 -49 13 -39 24 -43 80 -33 35 7 46 6 56 -6 10 -14 14 -12 28 10 21 31 16 65 -10 80 -11 6 -23 16 -27 21 -4 6 -8 2 -8 -7 0 -10 -4 -18 -10 -18 -5 0 -10 11 -10 25 0 32 -25 44 -83 42 -26 -1 -42 -4 -36 -6z m79 -71 c0 -5 -8 -10 -17 -10 -15 0 -16 2 -3 10 19 12 20 12 20 0z"/>
<path d="M15360 7040 c0 -5 5 -10 11 -10 5 0 7 5 4 10 -3 6 -8 10 -11 10 -2 0 -4 -4 -4 -10z"/>
<path d="M14370 7030 c0 -5 5 -10 11 -10 5 0 7 5 4 10 -3 6 -8 10 -11 10 -2 0 -4 -4 -4 -10z"/>
<path d="M14366 7001 c-4 -5 -2 -12 3 -15 5 -4 12 -2 15 3 4 5 2 12 -3 15 -5 4 -12 2 -15 -3z"/>
<path d="M14637 7003 c-4 -3 -7 -11 -7 -17 0 -6 5 -5 12 2 6 6 9 14 7 17 -3 3 -9 2 -12 -2z"/>
<path d="M15824 6969 c-3 -6 -1 -16 4 -21 8 -8 11 -5 9 11 -1 24 -3 25 -13 10z"/>
<path d="M14660 6941 c-34 -29 -34 -31 -20 -57 24 -44 118 -88 156 -73 12 4 24 19 28 34 7 27 -13 119 -21 97 -4 -10 -9 -10 -23 3 -10 9 -33 18 -51 21 -27 4 -41 -1 -69 -25z"/>
<path d="M15780 6945 c0 -8 5 -15 10 -15 6 0 10 7 10 15 0 8 -4 15 -10 15 -5 0 -10 -7 -10 -15z"/>
<path d="M16942 6915 c25 -24 42 -32 57 -28 31 8 26 16 -28 41 -66 30 -72 27 -29 -13z"/>
<path d="M15510 6925 c0 -8 -7 -15 -15 -15 -42 0 -58 -15 -43 -40 12 -18 12 -18 26 1 18 26 50 24 64 -5 14 -32 4 -56 -24 -56 l-22 0 24 -17 c13 -9 38 -18 56 -18 17 -1 36 -5 42 -9 17 -11 62 16 68 41 10 39 -36 74 -50 38 -13 -35 -66 -2 -66 40 0 17 -9 29 -30 40 -27 14 -30 14 -30 0z"/>
<path d="M17286 6918 c-9 -12 -16 -26 -16 -30 0 -14 27 -8 43 10 13 14 13 19 2 29 -11 10 -17 9 -29 -9z"/>
<path d="M15839 6898 c-13 -24 -12 -26 21 -33 16 -4 32 -11 35 -16 9 -14 25 -11 25 6 0 9 9 15 25 15 14 0 25 4 25 9 0 17 -26 29 -73 33 -38 2 -51 0 -58 -14z"/>
<path d="M16156 6898 c3 -13 7 -23 8 -24 0 0 18 -10 39 -22 39 -22 82 -29 91 -14 3 4 -12 17 -32 27 -20 11 -48 27 -61 37 -34 26 -54 24 -45 -4z"/>
<path d="M14540 6903 c0 -14 19 -38 25 -32 8 8 -5 39 -16 39 -5 0 -9 -3 -9 -7z"/>
<path d="M14270 6890 c-8 -5 -12 -11 -9 -14 3 -3 14 1 25 9 21 16 8 20 -16 5z"/>
<path d="M14405 6895 c-5 -2 -22 -6 -36 -9 -22 -5 -25 -10 -21 -38 7 -50 54 -122 82 -126 13 -2 30 -10 38 -18 8 -9 28 -14 45 -12 27 3 33 9 44 46 12 44 12 44 -25 78 -20 19 -46 34 -57 34 -26 1 -59 26 -50 39 6 11 0 13 -20 6z"/>
<path d="M16694 6875 c-3 -8 -3 -19 1 -25 7 -12 71 -40 91 -40 27 0 13 30 -20 44 -18 8 -37 19 -40 25 -10 15 -26 14 -32 -4z"/>
<path d="M14861 6844 c0 -11 3 -14 6 -6 3 7 2 16 -1 19 -3 4 -6 -2 -5 -13z"/>
<path d="M15235 6820 c-4 -6 -19 -10 -34 -10 -16 0 -37 -10 -49 -23 -22 -23 -30 -57 -13 -57 5 0 25 -15 46 -34 43 -40 94 -53 136 -34 52 23 49 69 -5 92 -8 3 -7 7 2 13 10 8 9 13 -5 24 -28 24 -72 40 -78 29z m55 -84 c0 -19 -4 -22 -30 -18 -23 3 -30 9 -30 27 0 13 6 25 13 28 21 7 47 -13 47 -37z"/>
<path d="M14317 6783 c-10 -10 -8 -25 2 -19 5 4 11 0 14 -6 2 -7 7 -11 10 -8 3 3 0 13 -7 22 -7 10 -16 15 -19 11z"/>
<path d="M14837 6733 c-11 -11 -8 -25 4 -17 8 5 8 1 0 -13 -8 -15 -6 -27 7 -50 27 -50 80 -103 95 -97 8 3 20 -2 27 -11 19 -23 55 -18 74 10 20 30 21 55 2 55 -18 0 -35 21 -39 51 -2 14 -12 25 -23 28 -10 2 -25 8 -31 13 -7 6 -29 10 -48 10 -22 0 -39 6 -42 14 -6 15 -16 18 -26 7z"/>
<path d="M16341 6716 c-13 -16 2 -29 94 -83 62 -36 101 -45 116 -26 19 22 -17 52 -111 90 -95 39 -84 37 -99 19z"/>
<path d="M16068 6702 c-47 -18 -49 -39 -8 -86 29 -33 48 -40 132 -53 31 -4 39 -1 54 22 21 31 19 33 -76 92 -64 39 -66 39 -102 25z m95 -46 c3 -8 0 -22 -7 -31 -12 -17 -14 -17 -34 0 -19 17 -20 19 -4 31 22 17 39 17 45 0z m-83 -10 c0 -2 3 -11 6 -20 9 -23 -13 -20 -26 4 -9 16 -8 20 5 20 8 0 15 -2 15 -4z"/>
<path d="M14420 6700 c0 -5 5 -10 10 -10 6 0 10 5 10 10 0 6 -4 10 -10 10 -5 0 -10 -4 -10 -10z"/>
<path d="M14291 6657 c-14 -36 -14 -37 4 -37 21 0 29 24 17 47 -10 16 -12 15 -21 -10z"/>
<path d="M15025 6650 c3 -5 8 -10 11 -10 2 0 4 5 4 10 0 6 -5 10 -11 10 -5 0 -7 -4 -4 -10z"/>
<path d="M15747 6636 c-70 -25 -87 -53 -35 -58 27 -2 34 -9 42 -35 9 -35 28 -45 82 -45 19 0 32 -3 30 -7 -3 -4 5 -7 17 -7 27 0 46 23 47 55 0 20 -2 21 -15 11 -24 -20 -69 14 -61 46 5 18 2 26 -11 30 -10 3 -26 10 -35 15 -10 5 -19 9 -20 9 -2 -1 -20 -7 -41 -14z m67 -52 c20 -19 20 -38 1 -54 -20 -16 -45 3 -45 35 0 37 18 45 44 19z"/>
<path d="M17012 6628 c2 -15 11 -24 26 -26 27 -4 28 9 4 31 -25 23 -34 21 -30 -5z"/>
<path d="M14363 6623 c9 -9 19 -14 23 -11 10 10 -6 28 -24 28 -15 0 -15 -1 1 -17z"/>
<path d="M14603 6608 c-24 -17 -43 -38 -43 -45 0 -26 71 -93 99 -93 15 0 33 -9 40 -19 19 -26 58 -9 66 31 8 33 -21 124 -42 132 -16 7 -17 -6 0 -23 10 -11 9 -13 -6 -7 -10 3 -25 6 -32 6 -7 0 -16 11 -19 25 -8 31 -12 31 -63 -7z"/>
<path d="M14810 6613 c0 -17 27 -46 33 -36 4 6 -2 18 -13 28 -11 10 -20 14 -20 8z"/>
<path d="M14197 6566 c-6 -14 0 -26 13 -26 3 0 6 9 7 20 2 23 -12 27 -20 6z"/>
<path d="M14476 6552 c-7 -12 3 -42 14 -42 18 0 22 22 7 37 -9 9 -17 11 -21 5z"/>
<path d="M15430 6539 c0 -37 -7 -40 -46 -17 -36 21 -42 15 -21 -23 36 -70 78 -100 148 -109 39 -5 52 -3 65 11 19 22 24 75 6 71 -8 -1 -11 2 -8 6 10 17 -32 44 -81 53 -26 5 -50 15 -55 22 -5 8 -8 3 -8 -14z m127 -56 c-4 -3 -2 -12 4 -19 11 -13 5 -34 -11 -34 -12 0 -20 28 -14 45 4 8 11 15 17 15 6 0 7 -3 4 -7z m-67 -63 c0 -5 -4 -10 -10 -10 -5 0 -10 5 -10 10 0 6 5 10 10 10 6 0 10 -4 10 -10z"/>
<path d="M14309 6537 c14 -18 2 -30 -16 -15 -18 15 -26 5 -25 -31 2 -63 58 -130 132 -155 42 -14 46 -14 66 5 12 11 24 35 27 52 3 25 -2 36 -30 62 -19 17 -56 40 -83 50 -27 11 -52 25 -54 32 -3 7 -11 13 -17 13 -8 0 -9 -4 0 -13z"/>
<path d="M16855 6490 c-9 -15 1 -26 52 -54 33 -19 49 -23 54 -15 4 7 14 9 23 6 30 -12 -4 28 -45 51 -41 24 -74 28 -84 12z"/>
<path d="M14795 6480 c-3 -5 -1 -10 4 -10 6 0 11 5 11 10 0 6 -2 10 -4 10 -3 0 -8 -4 -11 -10z"/>
<path d="M16615 6479 c-4 -6 -13 -8 -21 -5 -21 8 -18 -38 4 -56 9 -8 45 -31 79 -52 54 -32 66 -36 95 -28 66 17 41 58 -72 118 -71 37 -76 39 -85 23z"/>
<path d="M15068 6473 c7 -3 16 -2 19 1 4 3 -2 6 -13 5 -11 0 -14 -3 -6 -6z"/>
<path d="M15128 6462 c-34 -16 -50 -43 -37 -63 5 -7 9 -22 9 -31 0 -41 77 -91 131 -86 32 3 34 6 40 48 7 49 -3 80 -27 80 -8 0 -26 12 -39 26 -13 14 -28 23 -34 20 -5 -4 -11 0 -13 7 -2 10 -8 10 -30 -1z"/>
<path d="M16302 6435 c-7 -8 -21 -15 -32 -15 -36 0 -33 -22 6 -56 44 -37 54 -41 54 -19 0 27 18 16 25 -15 8 -38 15 -42 81 -47 49 -4 55 -3 62 18 5 13 7 30 5 39 -7 22 -101 92 -128 95 -13 2 -31 5 -42 9 -10 3 -24 -2 -31 -9z"/>
<path d="M14245 6390 c-10 -17 12 -37 25 -24 8 8 6 15 -4 23 -10 9 -16 9 -21 1z"/>
<path d="M14576 6367 c11 -14 22 -23 27 -20 10 6 0 21 -25 34 -20 11 -20 11 -2 -14z"/>
<path d="M16020 6361 c0 -5 -16 -26 -35 -46 -40 -41 -38 -55 8 -55 23 0 35 -6 42 -22 15 -32 56 -42 99 -24 25 10 36 21 36 36 0 14 -5 20 -17 18 -12 -2 -19 5 -21 20 -5 36 -112 106 -112 73z m68 -102 c-2 -6 -8 -10 -13 -10 -5 0 -11 4 -13 10 -2 6 4 11 13 11 9 0 15 -5 13 -11z"/>
<path d="M14780 6331 c0 -40 52 -127 81 -136 12 -4 18 -13 15 -21 -3 -7 0 -16 6 -20 7 -4 8 -3 4 4 -4 8 0 12 11 12 11 0 24 5 31 12 9 9 12 9 12 -1 0 -7 9 -11 22 -9 44 6 42 118 -2 118 -11 0 -20 5 -20 10 0 6 6 10 13 10 6 0 -1 9 -17 19 -17 11 -33 18 -37 15 -4 -2 -10 0 -14 6 -8 14 -72 13 -81 -1 -4 -8 -9 -7 -15 2 -6 10 -9 3 -9 -20z"/>
<path d="M14228 6275 c5 -28 22 -24 22 6 0 10 -6 19 -14 19 -9 0 -12 -8 -8 -25z"/>
<path d="M14494 6279 c-14 -15 -14 -18 -3 -14 9 3 22 -1 29 -10 8 -10 9 -15 1 -15 -6 0 -11 -9 -11 -20 0 -11 -4 -20 -10 -20 -16 0 -12 -37 5 -44 8 -3 15 -12 15 -21 0 -8 4 -15 9 -15 4 0 26 -12 47 -27 42 -29 89 -36 116 -19 23 14 22 71 -1 111 -22 37 -103 70 -134 54 -14 -8 -18 -8 -13 0 4 6 -1 22 -12 36 -19 24 -19 24 -38 4z"/>
<path d="M15627 6282 c-12 -11 -13 -19 -5 -32 9 -14 18 -16 47 -9 26 6 40 4 52 -7 8 -7 29 -14 46 -14 17 0 34 -6 36 -12 3 -7 6 -3 6 9 1 16 -6 24 -24 29 -14 3 -25 9 -25 13 0 10 -52 30 -87 35 -19 2 -38 -3 -46 -12z"/>
<path d="M17148 6249 c-10 -5 -18 -16 -18 -24 0 -22 75 -75 136 -96 50 -18 59 -18 71 -6 13 13 12 17 -9 37 -30 30 -138 100 -152 100 -6 0 -19 -5 -28 -11z"/>
<path d="M17380 6254 c1 -23 29 -46 47 -39 17 8 17 8 -2 12 -11 3 -26 12 -32 21 -7 9 -13 12 -13 6z"/>
<path d="M14427 6231 c6 -25 19 -35 27 -22 3 4 -3 16 -14 26 -18 16 -18 16 -13 -4z"/>
<path d="M16843 6210 c-28 -11 -29 -20 -4 -52 42 -53 184 -102 219 -75 17 13 15 42 -4 58 -14 11 -18 11 -29 -4 -12 -16 -13 -15 -19 9 -15 60 -95 91 -163 64z"/>
<path d="M14411 6197 c-1 -10 -5 -15 -11 -12 -5 3 -10 -1 -10 -9 0 -19 13 -27 28 -17 9 5 10 14 3 32 -7 18 -10 20 -10 6z"/>
<path d="M15640 6192 c0 -6 -3 -17 -6 -26 -4 -11 -1 -16 11 -16 9 0 30 -8 46 -17 27 -16 29 -16 48 1 17 15 24 16 35 7 15 -13 36 -7 36 9 0 5 -10 14 -21 21 -16 8 -23 8 -29 -1 -6 -9 -10 -9 -16 3 -10 18 -104 35 -104 19z"/>
<path d="M15281 6156 c-1 -42 43 -126 67 -126 6 0 12 -6 12 -12 0 -8 18 -14 48 -16 57 -3 83 18 84 66 1 35 -8 52 -29 52 -8 0 -28 14 -43 30 -23 24 -36 30 -70 30 -33 0 -41 -3 -36 -15 3 -9 0 -15 -9 -15 -7 0 -16 10 -18 23 -3 13 -5 6 -6 -17z"/>
<path d="M14043 6154 c-3 -8 -1 -20 6 -27 8 -8 11 -6 11 10 0 12 6 24 13 26 7 3 5 6 -6 6 -10 1 -20 -6 -24 -15z"/>
<path d="M14120 6149 c0 -18 2 -19 15 -9 15 12 12 30 -6 30 -5 0 -9 -10 -9 -21z"/>
<path d="M16543 6154 c-38 -16 -39 -21 -15 -63 20 -36 119 -91 163 -91 35 0 64 38 54 70 -7 23 -71 68 -125 87 -41 15 -36 15 -77 -3z"/>
<path d="M14205 6144 c-34 -14 -51 -57 -29 -75 8 -6 14 -18 14 -25 0 -8 5 -14 12 -14 6 0 9 -3 5 -6 -8 -8 59 -54 78 -54 8 0 17 -5 20 -10 4 -6 13 -7 23 -1 9 4 22 7 28 4 12 -4 54 67 54 92 0 52 -144 115 -205 89z"/>
<path d="M14456 6146 c3 -9 11 -16 16 -16 13 0 5 23 -10 28 -7 2 -10 -2 -6 -12z"/>
<path d="M17480 6156 c0 -2 8 -10 18 -17 15 -13 16 -12 3 4 -13 16 -21 21 -21 13z"/>
<path d="M14745 6119 c-10 -15 3 -25 16 -12 7 7 7 13 1 17 -6 3 -14 1 -17 -5z"/>
<path d="M15010 6122 c0 -12 19 -26 26 -19 2 2 -2 10 -11 17 -9 8 -15 8 -15 2z"/>
<path d="M14083 6095 c-3 -9 -3 -18 -1 -21 3 -3 8 4 11 16 6 23 -1 27 -10 5z"/>
<path d="M14130 6095 c-7 -9 -8 -15 -2 -15 5 0 12 7 16 15 3 8 4 15 2 15 -2 0 -9 -7 -16 -15z"/>
<path d="M15090 6090 c0 -5 5 -10 11 -10 5 0 7 5 4 10 -3 6 -8 10 -11 10 -2 0 -4 -4 -4 -10z"/>
<path d="M16235 6090 c-4 -6 -1 -10 4 -10 6 0 11 -11 11 -25 0 -28 -20 -33 -44 -10 -18 19 -33 20 -17 2 6 -8 8 -16 5 -20 -11 -10 7 -46 24 -49 9 -2 30 6 45 19 22 18 33 21 47 13 23 -13 35 -49 21 -63 -18 -18 -13 -27 17 -27 29 0 62 26 62 48 0 7 -14 12 -31 12 -29 0 -30 2 -24 29 6 27 3 32 -37 53 -64 34 -77 38 -83 28z"/>
<path d="M15038 6065 c-33 -44 -23 -72 38 -113 10 -7 32 -21 49 -32 16 -10 38 -18 50 -16 17 3 20 10 19 47 -1 75 -10 97 -46 105 -18 4 -41 7 -51 5 -9 -1 -20 5 -23 13 -8 22 -16 20 -36 -9z"/>
<path d="M14100 6065 c0 -2 10 -20 21 -40 17 -29 24 -33 35 -24 12 10 12 15 -3 32 -10 11 -12 17 -5 13 7 -4 12 -2 12 7 0 9 -11 14 -30 15 -16 0 -30 -1 -30 -3z"/>
<path d="M14436 6015 c4 -8 10 -15 15 -15 5 0 9 7 9 15 0 8 -7 15 -15 15 -9 0 -12 -6 -9 -15z"/>
<path d="M14717 6016 c-5 -11 0 -16 14 -16 11 0 17 -5 14 -10 -4 -6 -14 -9 -23 -8 -28 5 -25 -60 5 -108 29 -46 56 -60 128 -69 55 -7 66 1 79 62 6 26 3 34 -24 57 -17 14 -36 26 -42 26 -6 0 -8 7 -4 15 6 17 -5 20 -20 5 -14 -14 -61 4 -95 36 -22 21 -27 23 -32 10z"/>
<path d="M15862 6013 c4 -14 -23 -54 -33 -48 -16 10 -9 -19 11 -45 l19 -25 29 29 c23 21 34 26 47 19 9 -6 18 -12 18 -15 4 -9 -34 -40 -41 -34 -3 4 0 11 8 16 8 5 11 12 8 16 -4 3 -15 -1 -24 -10 -15 -16 -15 -18 7 -37 39 -34 70 -42 112 -28 25 8 39 20 43 35 8 30 1 40 -36 52 -24 9 -30 8 -30 -4 0 -7 -9 -14 -21 -14 -18 0 -19 2 -5 15 23 23 1 51 -53 70 -50 17 -62 18 -59 8z"/>
<path d="M14493 5995 c0 -9 7 -15 16 -13 19 4 18 22 -2 26 -7 2 -14 -4 -14 -13z"/>
<path d="M14920 5999 c0 -5 5 -7 10 -4 6 3 10 8 10 11 0 2 -4 4 -10 4 -5 0 -10 -5 -10 -11z"/>
<path d="M14647 5984 c6 -15 23 -19 23 -5 0 5 -7 11 -14 14 -10 4 -13 1 -9 -9z"/>
<path d="M17382 5978 c-7 -7 -12 -17 -12 -23 0 -12 42 -55 54 -55 4 0 19 -9 34 -20 26 -19 112 -39 112 -26 0 16 -34 56 -46 56 -8 0 -19 9 -26 21 -12 19 -76 59 -96 59 -4 0 -13 -5 -20 -12z"/>
<path d="M14995 5971 c-3 -5 -1 -12 4 -15 5 -3 11 1 15 9 6 16 -9 21 -19 6z"/>
<path d="M17108 5939 c-43 -25 5 -94 95 -138 58 -28 90 -27 106 3 18 33 3 56 -70 105 -61 41 -98 49 -131 30z"/>
<path d="M14390 5925 c-10 -12 -8 -16 15 -25 33 -13 36 -11 28 18 -6 25 -25 29 -43 7z"/>
<path d="M14103 5906 c0 -14 5 -27 12 -30 11 -4 13 9 6 47 -3 18 -18 4 -18 -17z"/>
<path d="M15524 5895 c-19 -29 -15 -52 12 -79 33 -32 62 -46 80 -39 14 5 16 3 11 -11 -9 -22 19 -33 44 -18 10 7 26 12 34 12 10 0 15 10 15 33 0 56 -10 74 -51 92 -21 10 -39 21 -39 25 0 4 -20 7 -45 8 -37 0 -49 -4 -61 -23z m78 -7 c-6 -6 -15 -8 -19 -4 -4 4 -1 11 7 16 19 12 27 3 12 -12z"/>
<path d="M14162 5901 c-9 -6 -8 -12 8 -26 20 -18 24 -13 12 17 -4 11 -12 14 -20 9z"/>
<path d="M14305 5894 c-9 -9 -14 -25 -12 -35 3 -10 1 -19 -3 -21 -11 -4 0 -58 11 -58 6 0 13 8 16 18 4 9 14 24 23 32 16 14 16 17 0 48 -17 31 -19 32 -35 16z"/>
<path d="M14423 5867 c-62 -50 -63 -70 -5 -124 31 -29 46 -36 93 -40 49 -5 58 -3 77 18 24 24 29 77 12 109 -11 21 -91 62 -111 58 -8 -2 -13 3 -11 10 3 16 5 17 -55 -31z"/>
<path d="M16772 5867 c-17 -10 -32 -23 -32 -28 0 -13 78 -89 91 -89 5 0 7 5 4 10 -10 16 3 12 33 -10 20 -15 39 -19 72 -17 38 3 46 7 54 30 8 23 5 30 -22 56 -62 59 -146 80 -200 48z"/>
<path d="M14670 5860 c0 -5 5 -10 11 -10 5 0 7 -4 4 -10 -3 -5 1 -10 9 -10 14 0 14 3 4 20 -14 21 -28 27 -28 10z"/>
<path d="M13957 5841 c3 -12 0 -28 -7 -36 -7 -9 -10 -18 -6 -22 7 -7 35 26 36 43 0 6 -6 17 -14 23 -12 10 -13 8 -9 -8z"/>
<path d="M14975 5840 c3 -5 8 -10 11 -10 2 0 4 5 4 10 0 6 -5 10 -11 10 -5 0 -7 -4 -4 -10z"/>
<path d="M15235 5810 c3 -5 1 -19 -6 -31 -10 -19 -9 -21 5 -16 14 6 16 3 11 -14 -5 -14 -4 -19 4 -15 6 4 19 2 28 -3 17 -10 17 -10 1 -11 -25 0 -22 -14 7 -41 13 -13 25 -28 25 -34 0 -5 27 -11 61 -11 l60 -2 -3 52 c-2 40 -6 51 -20 50 -11 -1 -14 4 -11 13 5 13 3 13 -18 3 -21 -12 -23 -11 -11 2 15 18 -1 35 -36 41 -12 2 -25 6 -28 10 -4 4 -18 4 -30 1 -15 -4 -24 -2 -24 5 0 6 -5 11 -11 11 -5 0 -7 -4 -4 -10z"/>
<path d="M16410 5792 c-19 -16 -21 -22 -11 -40 12 -23 31 -30 31 -12 0 6 7 10 15 10 8 0 19 -17 26 -40 7 -23 20 -42 31 -45 22 -7 58 3 58 16 0 14 26 11 40 -5 18 -23 40 -8 38 25 -1 18 -9 31 -21 35 -10 3 -28 15 -40 27 l-20 20 -8 -21 c-9 -24 -48 -31 -50 -9 -1 6 -2 21 -3 32 -2 28 -55 32 -86 7z"/>
<path d="M14330 5764 c0 -1 6 -13 14 -28 13 -26 13 -26 31 -6 10 11 15 23 12 27 -6 5 -57 12 -57 7z"/>
<path d="M14642 5761 c-13 -8 -6 -41 8 -41 15 0 22 19 13 34 -5 9 -13 12 -21 7z"/>
<path d="M14942 5758 c-18 -18 -15 -41 4 -34 9 3 18 6 20 6 8 0 4 29 -4 34 -5 3 -14 0 -20 -6z"/>
<path d="M13950 5753 c0 -4 7 -28 14 -53 16 -51 30 -36 18 19 -7 30 -32 58 -32 34z"/>
<path d="M14705 5730 c-7 -12 2 -30 16 -30 12 0 12 27 0 35 -5 3 -12 1 -16 -5z"/>
<path d="M16093 5713 c-23 -15 -30 -48 -15 -68 24 -33 102 -83 132 -85 63 -5 83 -1 77 14 -3 8 1 17 8 20 21 8 -1 66 -25 66 -10 0 -21 6 -23 13 -4 8 -6 9 -6 0 -1 -6 6 -19 15 -28 9 -9 13 -19 9 -23 -4 -4 -10 -1 -12 6 -3 6 -11 12 -19 12 -9 0 -14 11 -14 28 0 23 -7 31 -38 45 -47 21 -60 21 -89 0z m37 -7 c0 -11 -19 -15 -25 -6 -3 5 1 10 9 10 9 0 16 -2 16 -4z m55 -96 c7 -12 -2 -12 -30 0 -19 8 -19 9 2 9 12 1 25 -3 28 -9z"/>
<path d="M14980 5713 c-20 -8 -70 -62 -70 -75 0 -15 61 -71 95 -88 17 -8 33 -19 37 -25 5 -6 8 -5 8 3 0 9 7 11 20 7 13 -4 31 0 45 9 22 14 25 24 25 75 0 44 -4 60 -16 65 -8 3 -12 2 -9 -4 10 -17 -3 -11 -22 10 -19 20 -87 34 -113 23z"/>
<path d="M14856 5695 c4 -8 10 -15 15 -15 4 0 6 -8 3 -17 -5 -15 -4 -15 4 -4 7 10 7 21 1 33 -12 22 -31 24 -23 3z"/>
<path d="M17653 5689 c-2 -22 52 -78 76 -79 8 0 25 -10 37 -21 13 -12 30 -19 38 -16 24 9 19 24 -11 44 -16 10 -32 23 -36 31 -9 14 -82 62 -95 62 -4 0 -8 -9 -9 -21z"/>
<path d="M14535 5624 c0 -19 5 -35 10 -37 14 -3 16 61 1 66 -8 3 -12 -7 -11 -29z"/>
<path d="M17348 5652 c-22 -4 -23 -18 -4 -37 12 -12 15 -11 20 11 8 30 7 32 -16 26z"/>
<path d="M14324 5641 c4 -5 0 -11 -6 -14 -7 -2 -10 -8 -6 -12 11 -12 38 2 38 20 0 8 -7 15 -16 15 -8 0 -13 -4 -10 -9z"/>
<path d="M14835 5639 c-4 -6 -5 -13 -2 -16 7 -7 27 6 27 18 0 12 -17 12 -25 -2z"/>
<path d="M15750 5637 c0 -5 -6 -7 -13 -4 -22 8 -9 -57 17 -91 33 -41 49 -52 76 -52 19 0 33 -7 40 -20 18 -33 76 -12 93 33 13 35 -4 62 -69 105 -53 35 -72 42 -104 40 -22 -1 -40 -6 -40 -11z m57 -79 c-3 -8 -6 -5 -6 6 -1 11 2 17 5 13 3 -3 4 -12 1 -19z m111 -63 c-3 -3 -9 2 -12 12 -6 14 -5 15 5 6 7 -7 10 -15 7 -18z"/>
<path d="M14373 5628 c2 -7 12 -12 21 -11 11 0 15 -4 12 -12 -3 -9 0 -12 9 -9 11 5 12 10 2 25 -13 21 -51 27 -44 7z"/>
<path d="M14603 5620 c-10 -14 -10 -20 0 -23 9 -4 9 -6 0 -6 -7 -1 -13 -12 -13 -25 0 -29 37 -96 53 -96 6 0 8 -3 5 -6 -13 -13 38 -49 71 -50 19 0 37 -6 39 -12 7 -23 28 -11 55 31 31 46 30 73 -4 115 -31 40 -69 56 -162 66 -10 1 -22 8 -26 14 -4 8 -10 5 -18 -8z"/>
<path d="M15178 5586 c-29 -28 -21 -47 10 -27 8 5 12 17 10 26 -3 18 -4 18 -20 1z"/>
<path d="M17080 5589 c0 -5 5 -9 10 -9 6 0 10 -8 11 -17 0 -11 3 -13 6 -5 4 9 11 8 33 -5 21 -12 30 -26 35 -58 5 -38 8 -42 30 -37 13 2 31 12 40 22 15 16 15 19 -1 35 -26 26 -64 48 -71 42 -3 -4 -11 0 -17 8 -13 18 -76 38 -76 24z"/>
<path d="M15460 5564 c0 -8 5 -12 10 -9 6 3 10 10 10 16 0 5 -4 9 -10 9 -5 0 -10 -7 -10 -16z"/>
<path d="M17554 5569 c-3 -6 -2 -15 3 -20 5 -5 9 -1 9 11 0 23 -2 24 -12 9z"/>
<path d="M15240 5560 c0 -5 4 -10 9 -10 6 0 13 5 16 10 3 6 -1 10 -9 10 -9 0 -16 -4 -16 -10z"/>
<path d="M16990 5566 c0 -2 7 -9 15 -16 13 -11 14 -10 9 4 -5 14 -24 23 -24 12z"/>
<path d="M14263 5538 c1 -14 7 -24 13 -21 19 7 26 -29 9 -47 -8 -9 -15 -26 -15 -38 0 -12 -4 -22 -9 -22 -12 0 -32 26 -25 33 12 12 10 69 -3 74 -17 7 -43 -21 -43 -46 0 -11 -4 -23 -10 -26 -5 -3 -10 -20 -10 -37 0 -29 1 -30 40 -26 27 2 41 -1 45 -10 2 -7 0 -10 -5 -7 -16 10 -12 -11 5 -25 17 -14 50 -6 40 10 -9 15 11 12 27 -4 8 -7 23 -16 34 -20 11 -3 31 -16 43 -27 l22 -21 24 26 c13 14 28 26 33 26 5 0 12 23 15 52 7 57 -1 71 -55 95 -17 8 -28 20 -28 32 0 11 -9 21 -22 24 -26 7 -38 -1 -19 -12 10 -6 9 -10 -4 -15 -24 -9 -25 -9 -36 24 -10 26 -13 28 -31 19 -15 -8 -22 -8 -28 2 -5 7 -7 2 -7 -13z"/>
<path d="M14505 5540 c-3 -6 1 -7 9 -4 18 7 21 14 7 14 -6 0 -13 -4 -16 -10z"/>
<path d="M15478 5503 c-16 -20 -28 -41 -28 -47 1 -19 26 -45 53 -55 15 -6 27 -17 27 -25 0 -23 77 -32 99 -11 50 45 -24 176 -99 175 -17 -1 -34 -12 -52 -37z m142 -123 c0 -5 -5 -10 -11 -10 -5 0 -7 5 -4 10 3 6 8 10 11 10 2 0 4 -4 4 -10z"/>
<path d="M16710 5525 c0 -4 9 -18 20 -32 19 -24 19 -27 4 -44 -21 -23 -31 -17 -42 23 -10 38 -24 45 -46 22 -13 -12 -14 -19 -5 -30 6 -8 18 -14 25 -14 8 0 14 -4 14 -10 0 -5 5 -10 11 -10 6 0 17 -7 25 -15 17 -17 101 -19 122 -2 8 6 17 5 27 -3 13 -11 18 -10 29 6 8 10 12 24 9 30 -5 14 -76 33 -113 31 -19 -2 -26 3 -28 21 -2 12 -8 20 -13 16 -6 -3 -16 0 -24 6 -8 7 -15 9 -15 5z"/>
<path d="M17060 5510 c0 -5 5 -10 11 -10 5 0 7 5 4 10 -3 6 -8 10 -11 10 -2 0 -4 -4 -4 -10z"/>
<path d="M14550 5492 c0 -34 11 -52 31 -52 25 0 24 6 -6 42 -22 26 -25 27 -25 10z"/>
<path d="M14126 5483 c-7 -18 19 -51 31 -39 4 4 0 13 -9 20 -13 10 -15 15 -6 24 8 8 9 12 1 12 -6 0 -14 -8 -17 -17z"/>
<path d="M14863 5465 c-3 -9 -3 -18 0 -21 9 -9 27 6 27 22 0 19 -19 18 -27 -1z"/>
<path d="M15140 5445 c0 -8 5 -15 10 -15 6 0 10 7 10 15 0 8 -4 15 -10 15 -5 0 -10 -7 -10 -15z"/>
<path d="M14925 5440 c-3 -5 1 -10 9 -10 9 0 16 5 16 10 0 6 -4 10 -9 10 -6 0 -13 -4 -16 -10z"/>
<path d="M15150 5415 l-23 -25 26 -53 c14 -30 33 -60 42 -67 8 -7 15 -19 15 -26 0 -16 16 -19 25 -4 5 8 11 8 19 1 7 -6 23 -7 37 -4 62 15 87 83 50 134 -12 16 -19 35 -15 41 4 7 3 8 -4 4 -6 -4 -20 -3 -30 3 -10 5 -41 12 -68 15 -45 5 -53 3 -74 -19z"/>
<path d="M16327 5414 c-25 -34 -18 -58 18 -64 22 -4 31 -12 33 -28 2 -14 17 -29 42 -42 48 -25 70 -25 77 -2 2 10 14 22 26 27 13 6 23 21 25 36 2 21 -2 28 -22 33 -15 3 -26 13 -26 21 0 8 -9 15 -19 15 -11 0 -23 5 -26 10 -4 6 -11 8 -16 5 -5 -4 -9 -2 -9 4 0 6 -19 10 -43 9 -32 0 -46 -6 -60 -24z m113 -28 c0 -11 -19 -15 -25 -6 -3 5 1 10 9 10 9 0 16 -2 16 -4z m25 -26 c4 -6 -1 -7 -11 -3 -13 5 -16 3 -11 -10 3 -9 2 -17 -2 -17 -14 0 -21 28 -8 34 19 7 25 7 32 -4z"/>
<path d="M14065 5400 c3 -5 8 -10 11 -10 2 0 4 5 4 10 0 6 -5 10 -11 10 -5 0 -7 -4 -4 -10z"/>
<path d="M17633 5399 c-26 -8 -30 -13 -25 -32 5 -18 7 -19 10 -4 2 9 8 17 13 17 12 0 11 -7 -1 -30 -8 -16 -4 -24 26 -46 42 -33 129 -65 150 -57 8 3 17 16 20 29 5 18 -1 31 -25 53 -24 22 -97 66 -131 77 -3 1 -19 -2 -37 -7z"/>
<path d="M14529 5378 c-6 -21 -4 -116 4 -125 12 -16 -5 -17 -20 -2 -8 8 -13 2 -19 -23 -4 -18 -7 -39 -5 -45 1 -8 -4 -10 -14 -7 -9 4 -17 -1 -22 -12 -3 -11 -10 -21 -15 -24 -4 -3 -3 -23 3 -44 8 -28 7 -41 -2 -52 -10 -12 -9 -13 4 -8 10 3 17 -1 20 -13 4 -15 5 -14 6 4 0 12 6 25 12 29 6 4 9 25 6 53 -3 25 -3 40 0 34 2 -7 4 -15 3 -19 -1 -3 8 -14 20 -24 12 -11 19 -24 15 -29 -4 -7 0 -8 11 -4 13 5 16 2 12 -8 -4 -9 1 -15 11 -15 9 -1 37 -4 62 -8 41 -7 49 -5 68 15 24 26 30 99 8 99 -8 0 -20 11 -27 25 -7 13 -17 22 -22 19 -4 -3 -8 2 -8 10 0 11 -9 16 -29 16 -17 0 -33 5 -36 10 -4 6 -11 8 -16 5 -5 -4 -9 3 -9 14 0 12 -4 21 -10 21 -6 0 -6 9 0 26 13 33 13 71 0 79 -5 3 -10 5 -11 3z"/>
<path d="M14155 5350 c3 -5 8 -10 11 -10 2 0 4 5 4 10 0 6 -5 10 -11 10 -5 0 -7 -4 -4 -10z"/>
<path d="M14600 5340 c0 -11 5 -20 10 -20 6 0 10 9 10 20 0 11 -4 20 -10 20 -5 0 -10 -9 -10 -20z"/>
<path d="M15107 5315 c6 -58 10 -65 23 -45 12 18 13 36 3 26 -5 -4 -14 9 -20 31 l-12 38 6 -50z"/>
<path d="M16010 5345 c0 -8 -4 -15 -9 -15 -5 0 -11 -14 -13 -31 -7 -48 47 -85 149 -103 41 -7 63 14 63 60 0 26 -4 34 -18 34 -10 0 -22 4 -27 9 -9 8 -132 61 -142 61 -2 0 -3 -7 -3 -15z m170 -84 c0 -5 3 -16 6 -25 4 -11 0 -14 -15 -13 -14 1 -20 6 -16 15 3 7 5 18 5 23 0 5 5 9 10 9 6 0 10 -4 10 -9z"/>
<path d="M17294 5344 c-49 -26 -59 -40 -41 -58 21 -21 26 -20 20 4 -4 16 -2 19 12 14 9 -4 13 -10 8 -13 -4 -3 -9 -17 -11 -31 -2 -17 0 -21 6 -12 6 10 13 8 28 -9 48 -53 137 -75 167 -41 42 46 4 99 -94 136 -61 22 -69 23 -95 10z"/>
<path d="M14940 5340 c0 -5 5 -10 10 -10 6 0 10 5 10 10 0 6 -4 10 -10 10 -5 0 -10 -4 -10 -10z"/>
<path d="M14748 5333 c-25 -6 -23 -22 2 -20 11 1 20 7 20 14 0 7 -1 12 -2 12 -2 -1 -11 -3 -20 -6z"/>
<path d="M14874 5329 c-3 -6 -15 -9 -25 -6 -11 3 -19 1 -19 -4 0 -5 5 -9 12 -9 6 0 2 -9 -10 -20 -12 -12 -22 -28 -22 -36 0 -24 53 -94 71 -94 9 0 24 -9 34 -20 10 -11 23 -16 29 -13 6 4 17 8 25 10 8 1 26 13 40 27 19 20 25 36 26 76 1 46 -1 50 -21 50 -13 0 -26 5 -29 11 -14 21 -101 44 -111 28z"/>
<path d="M14242 5295 c-21 -23 -42 -65 -42 -86 0 -16 34 26 57 69 24 47 19 53 -15 17z"/>
<path d="M14738 5273 c-31 -16 -36 -44 -13 -63 13 -10 15 -9 15 12 0 13 7 34 16 46 8 12 14 22 12 21 -2 -1 -15 -8 -30 -16z"/>
<path d="M14310 5270 c0 -5 -9 -10 -20 -10 -20 0 -25 -15 -14 -44 7 -19 31 -21 31 -3 0 7 3 25 7 40 3 15 4 27 1 27 -3 0 -5 -4 -5 -10z"/>
<path d="M14370 5254 c0 -8 5 -12 10 -9 6 3 10 10 10 16 0 5 -4 9 -10 9 -5 0 -10 -7 -10 -16z"/>
<path d="M17008 5251 c-5 -11 -65 -41 -82 -41 -18 0 -20 -8 -8 -28 5 -7 16 -10 24 -7 9 4 19 2 23 -4 3 -6 1 -11 -4 -11 -6 0 -11 -4 -11 -10 0 -19 24 -10 45 16 19 24 23 25 43 13 16 -10 22 -24 22 -51 0 -33 3 -38 23 -38 29 0 63 24 70 50 5 19 -21 62 -53 87 -19 15 -88 33 -92 24z"/>
<path d="M14424 5228 c3 -13 6 -26 6 -30 0 -5 7 -8 15 -8 17 0 18 4 9 38 -4 12 -13 22 -21 22 -11 0 -14 -6 -9 -22z"/>
<path d="M15690 5230 c-29 -29 -25 -58 16 -96 29 -28 43 -34 79 -34 36 0 48 5 70 31 28 34 29 65 2 63 -9 -1 -17 4 -17 11 0 7 -14 12 -32 13 -17 0 -35 8 -40 16 -12 22 -54 20 -78 -4z"/>
<path d="M14782 5204 c-9 -30 -8 -36 9 -44 21 -12 26 -1 7 18 -7 7 -8 12 -2 12 12 0 16 38 5 44 -4 3 -13 -10 -19 -30z"/>
<path d="M14230 5211 c0 -5 5 -13 10 -16 6 -3 10 -2 10 4 0 5 -4 13 -10 16 -5 3 -10 2 -10 -4z"/>
<path d="M14340 5205 c0 -8 5 -15 10 -15 6 0 10 7 10 15 0 8 -4 15 -10 15 -5 0 -10 -7 -10 -15z"/>
<path d="M15066 5184 c-4 -9 -4 -19 -1 -22 6 -6 35 18 35 29 0 16 -28 10 -34 -7z"/>
<path d="M14396 5164 c-10 -26 -7 -34 10 -27 13 5 13 7 2 14 -10 7 -10 9 0 9 6 0 12 5 12 10 0 16 -17 12 -24 -6z"/>
<path d="M15370 5131 c-22 -24 -40 -50 -40 -56 0 -35 101 -98 123 -76 6 6 21 11 34 11 17 0 27 11 43 44 36 81 24 99 -77 116 -42 7 -44 5 -83 -39z"/>
<path d="M16588 5153 c-50 -24 -59 -42 -33 -63 12 -10 21 -10 41 -1 32 14 47 5 41 -25 -4 -21 -1 -23 15 -18 12 4 24 0 32 -11 7 -9 30 -18 54 -21 34 -3 44 0 52 16 18 35 -9 106 -37 96 -7 -3 -13 -1 -13 4 0 4 -16 14 -35 20 -19 6 -35 16 -35 21 0 15 -32 8 -82 -18z"/>
<path d="M14260 5160 c0 -5 5 -10 10 -10 6 0 10 5 10 10 0 6 -4 10 -10 10 -5 0 -10 -4 -10 -10z"/>
<path d="M14345 5141 c-3 -5 -1 -12 5 -16 5 -3 10 1 10 9 0 18 -6 21 -15 7z"/>
<path d="M17847 5103 c-21 -24 -21 -33 1 -62 46 -62 76 -91 91 -91 9 0 23 -6 29 -12 10 -10 15 -10 22 2 6 10 3 21 -10 35 -10 11 -21 41 -25 67 -8 53 -18 65 -61 74 -22 4 -34 0 -47 -13z"/>
<path d="M14750 5081 c0 -6 5 -13 10 -16 6 -3 10 1 10 9 0 9 -4 16 -10 16 -5 0 -10 -4 -10 -9z"/>
<path d="M15030 5080 c-8 -5 -11 -12 -7 -16 4 -4 2 -13 -4 -20 -6 -8 -9 -20 -6 -28 3 -8 -2 -16 -14 -19 -12 -3 -19 -13 -18 -29 1 -17 3 -18 6 -5 5 20 33 23 33 4 0 -17 29 -77 38 -78 106 -20 125 -18 141 16 28 58 18 125 -18 125 -6 0 -11 5 -11 10 0 6 -9 10 -20 10 -11 0 -20 5 -20 11 0 11 -25 8 -63 -7 -10 -4 -17 1 -19 15 -2 15 -7 18 -18 11z"/>
<path d="M16260 5079 c0 -6 -7 -8 -16 -5 -25 10 -44 -13 -44 -53 0 -33 4 -38 54 -64 78 -41 130 -46 161 -17 35 33 33 60 -5 60 -32 0 -37 9 -17 29 10 10 9 11 -5 6 -11 -4 -20 1 -28 15 -6 12 -17 19 -24 17 -7 -3 -23 1 -37 9 -30 16 -39 17 -39 3z"/>
<path d="M14800 5063 c0 -14 27 -29 36 -21 2 3 2 12 -1 20 -7 18 -35 19 -35 1z"/>
<path d="M17516 5038 c-23 -33 -20 -83 6 -108 33 -30 100 -60 136 -60 37 0 36 -2 17 38 -9 17 -18 53 -22 81 -5 45 -8 51 -29 51 -13 0 -24 5 -24 10 0 6 -15 10 -34 10 -25 0 -39 -7 -50 -22z"/>
<path d="M14506 5011 c-4 -5 -3 -16 0 -25 3 -9 2 -16 -4 -16 -6 0 -12 6 -15 13 -3 8 -7 6 -12 -6 -7 -17 9 -47 26 -47 5 0 9 9 9 19 0 11 6 21 13 24 9 3 9 7 0 19 -7 8 -10 18 -6 21 3 4 4 7 0 7 -3 0 -8 -4 -11 -9z"/>
<path d="M15891 4980 c-47 -47 -48 -50 -23 -70 73 -63 156 -87 195 -56 19 15 37 113 18 102 -5 -3 -14 1 -21 9 -7 8 -21 15 -31 15 -10 0 -22 6 -26 14 -4 7 -22 17 -40 20 -27 6 -36 2 -72 -34z"/>
<path d="M14716 4991 c-4 -7 -5 -15 -2 -18 9 -9 19 4 14 18 -4 11 -6 11 -12 0z"/>
<path d="M14921 4974 c0 -11 3 -14 6 -6 3 7 2 16 -1 19 -3 4 -6 -2 -5 -13z"/>
<path d="M17215 4970 c-3 -5 -1 -10 4 -10 6 0 11 -16 11 -35 0 -29 -5 -37 -25 -45 -41 -15 -33 -29 38 -69 21 -12 49 -21 62 -21 30 0 75 47 75 78 0 33 -61 92 -95 92 -14 0 -35 5 -45 10 -13 7 -21 7 -25 0z m95 -60 c0 -23 -4 -30 -20 -30 -23 0 -23 0 -10 34 13 35 30 33 30 -4z m40 -70 c0 -5 -7 -10 -15 -10 -8 0 -15 5 -15 10 0 6 7 10 15 10 8 0 15 -4 15 -10z"/>
<path d="M14770 4960 c0 -5 -7 -10 -15 -10 -8 0 -15 -7 -15 -15 0 -8 -6 -15 -14 -15 -8 0 -21 -17 -29 -37 -14 -35 -13 -39 2 -45 9 -4 12 -7 6 -7 -17 -1 37 -45 83 -68 38 -19 41 -22 25 -32 -10 -6 -13 -10 -8 -10 6 0 29 17 52 38 36 32 43 46 46 82 3 39 0 47 -31 76 -19 18 -45 33 -58 33 -13 0 -24 5 -24 10 0 6 -4 10 -10 10 -5 0 -10 -4 -10 -10z"/>
<path d="M14614 4945 c-4 -8 -1 -22 6 -30 11 -13 10 -18 -5 -28 -18 -14 -18 -53 0 -51 6 0 14 14 20 30 5 16 12 31 16 34 10 8 7 45 -5 52 -17 12 -26 9 -32 -7z"/>
<path d="M14967 4915 c-4 -25 4 -40 17 -28 9 9 7 41 -3 47 -5 3 -11 -6 -14 -19z"/>
<path d="M15295 4929 c-7 -11 20 -41 29 -32 11 11 6 31 -9 36 -8 4 -17 2 -20 -4z"/>
<path d="M15550 4905 c0 -8 -4 -15 -9 -15 -20 0 -20 -34 0 -81 23 -53 60 -89 90 -89 11 0 19 -4 19 -10 0 -5 7 -10 16 -10 9 0 12 5 8 12 -5 8 -2 9 11 4 24 -9 65 30 65 62 0 54 -65 111 -128 112 -9 0 -26 7 -36 15 -25 19 -36 19 -36 0z"/>
<path d="M14405 4899 c-12 -19 5 -23 22 -6 16 16 16 17 1 17 -9 0 -20 -5 -23 -11z"/>
<path d="M16828 4884 c-3 -3 -2 -21 4 -40 5 -19 6 -44 3 -55 -9 -26 10 -48 62 -70 58 -25 106 -9 135 44 13 25 -14 65 -58 83 -19 8 -34 19 -34 25 0 7 -10 9 -25 5 -14 -4 -25 -3 -25 2 0 9 -54 15 -62 6z"/>
<path d="M14950 4843 c-14 -17 -24 -73 -13 -73 14 0 28 29 28 58 0 17 0 32 0 32 0 0 -7 -8 -15 -17z"/>
<path d="M15216 4833 c-10 -10 -7 -43 5 -43 5 0 7 5 3 11 -3 6 -1 15 6 19 7 4 8 10 2 13 -5 4 -12 4 -16 0z"/>
<path d="M15030 4813 c0 -6 -6 -10 -12 -9 -14 1 -18 -5 -18 -30 0 -12 6 -9 21 10 12 15 19 30 15 33 -3 4 -6 2 -6 -4z"/>
<path d="M15300 4810 c0 -5 -6 -7 -12 -5 -25 9 -78 -53 -78 -89 0 -28 46 -83 85 -102 65 -31 125 8 125 81 0 46 -22 71 -80 92 -19 6 -29 12 -22 13 7 0 10 5 7 10 -8 13 -25 13 -25 0z"/>
<path d="M16448 4804 c-50 -27 -52 -47 -12 -93 20 -22 41 -38 45 -35 5 3 9 1 9 -4 0 -7 41 -33 60 -37 3 0 17 -4 33 -8 27 -7 65 5 79 27 15 21 8 72 -11 88 -39 34 -70 50 -82 42 -9 -5 -10 -2 -6 10 5 14 3 15 -12 6 -12 -6 -21 -6 -23 -1 -6 17 -53 20 -80 5z"/>
<path d="M14680 4780 c0 -5 5 -10 10 -10 6 0 10 5 10 10 0 6 -4 10 -10 10 -5 0 -10 -4 -10 -10z"/>
<path d="M15480 4780 c0 -5 5 -10 11 -10 5 0 7 5 4 10 -3 6 -8 10 -11 10 -2 0 -4 -4 -4 -10z"/>
<path d="M18053 4773 c-28 -11 -2 -112 27 -105 8 2 10 -3 7 -13 -4 -9 -1 -15 8 -15 8 0 15 6 16 13 0 6 4 3 9 -8 5 -13 7 0 3 35 -7 87 -26 111 -70 93z"/>
<path d="M16090 4735 c-7 -9 -11 -18 -8 -20 3 -3 11 1 18 10 7 9 11 18 8 20 -3 3 -11 -1 -18 -10z"/>
<path d="M17756 4734 c-23 -13 -27 -20 -22 -42 17 -73 24 -86 68 -116 40 -29 91 -38 117 -21 6 3 11 26 11 49 0 35 -6 50 -34 80 -18 21 -40 38 -47 40 -8 1 -24 7 -36 14 -26 14 -22 15 -57 -4z"/>
<path d="M14924 4718 c5 -22 3 -26 -9 -22 -18 7 -20 -7 -3 -24 9 -9 9 -12 1 -12 -7 0 -14 -8 -17 -18 -4 -11 -18 -25 -31 -32 -32 -17 -32 -34 0 -26 18 5 25 2 25 -8 0 -8 -7 -16 -15 -20 -15 -5 -20 -42 -9 -70 9 -23 24 -20 24 4 0 11 7 23 15 26 8 4 12 10 9 15 -3 5 0 9 5 9 6 0 11 -4 11 -8 0 -5 12 -14 27 -21 l27 -13 -23 -17 c-18 -14 -21 -20 -11 -26 9 -5 20 0 32 15 15 18 21 20 33 10 24 -20 70 -3 87 33 18 41 10 85 -25 123 -14 15 -23 32 -20 38 4 6 0 5 -8 -1 -12 -10 -22 -10 -47 -1 -26 10 -37 10 -52 0 -24 -14 -26 -7 -5 14 8 9 15 23 14 32 0 11 -2 13 -6 4 -4 -10 -9 -9 -20 5 -13 17 -14 16 -9 -9z"/>
<path d="M15126 4722 c2 -3 -1 -11 -7 -19 -8 -9 -8 -13 -1 -13 16 0 26 20 15 30 -6 4 -8 5 -7 2z"/>
<path d="M16135 4721 c-11 -3 -31 -14 -45 -23 -19 -14 -22 -20 -12 -30 7 -7 12 -18 12 -26 0 -30 55 -92 90 -102 82 -23 130 0 130 64 0 35 -17 50 -44 40 -8 -3 -17 0 -22 7 -4 8 -3 10 4 5 7 -4 12 -1 12 9 0 12 -5 15 -22 9 -20 -6 -21 -5 -10 8 13 17 13 16 -48 36 -14 5 -34 6 -45 3z m84 -88 c0 -25 -1 -25 -8 -8 -5 11 -7 23 -4 28 8 14 13 7 12 -20z"/>
<path d="M14700 4684 c-11 -12 -11 -18 2 -30 14 -14 15 -12 14 15 -1 36 0 35 -16 15z"/>
<path d="M15174 4657 c4 -51 16 -65 32 -36 18 32 17 44 -1 29 -13 -11 -14 -10 -10 2 3 8 -1 20 -9 27 -12 10 -14 7 -12 -22z"/>
<path d="M14595 4660 c-3 -5 -1 -10 4 -10 6 0 11 5 11 10 0 6 -2 10 -4 10 -3 0 -8 -4 -11 -10z"/>
<path d="M15457 4656 c-4 -10 -5 -21 -2 -24 9 -9 17 6 13 25 -3 17 -4 17 -11 -1z"/>
<path d="M17472 4661 c-10 -6 -10 -19 -3 -51 7 -30 6 -50 -1 -64 -8 -14 -8 -21 0 -24 6 -2 9 -9 6 -16 -5 -14 22 -30 36 -21 5 3 11 1 15 -5 10 -16 44 -11 65 10 12 12 20 33 20 54 0 29 -7 39 -52 73 -68 51 -72 53 -86 44z"/>
<path d="M14645 4640 c3 -5 8 -10 11 -10 2 0 4 5 4 10 0 6 -5 10 -11 10 -5 0 -7 -4 -4 -10z"/>
<path d="M15840 4640 c0 -5 -10 -10 -22 -10 -28 0 -78 -48 -78 -74 1 -24 22 -56 37 -56 5 0 18 -9 28 -20 10 -11 26 -20 37 -20 10 0 18 -4 18 -9 0 -5 8 -12 18 -14 16 -4 16 -5 0 -6 -18 -1 -26 -21 -10 -21 11 0 95 59 104 74 18 28 -29 130 -56 120 -8 -3 -26 6 -41 20 -31 29 -35 31 -35 16z"/>
<path d="M14807 4609 c-20 -23 -16 -35 8 -26 8 4 15 16 15 27 0 25 -1 25 -23 -1z"/>
<path d="M14825 4545 c0 -13 3 -21 8 -18 4 2 7 10 7 18 0 8 -3 16 -7 18 -5 3 -8 -5 -8 -18z"/>
<path d="M17163 4564 c3 -3 0 -25 -7 -47 -6 -23 -9 -55 -6 -72 5 -27 9 -30 46 -33 35 -2 42 1 53 24 6 14 9 36 5 48 -8 25 -68 86 -85 86 -7 0 -10 -3 -6 -6z"/>
<path d="M15133 4538 c5 -31 25 -34 23 -3 0 14 -7 25 -13 25 -8 0 -11 -9 -10 -22z"/>
<path d="M15654 4540 c0 -10 6 -16 13 -13 7 3 13 9 13 13 0 4 -6 10 -13 13 -7 3 -13 -3 -13 -13z"/>
<path d="M15425 4530 c-23 -26 -9 -26 30 0 26 17 27 20 9 20 -11 0 -29 -9 -39 -20z"/>
<path d="M15350 4515 c0 -13 4 -14 20 -5 11 6 20 13 20 15 0 3 -9 5 -20 5 -11 0 -20 -7 -20 -15z"/>
<path d="M15440 4507 c-8 -7 -21 -23 -28 -35 -11 -20 -10 -26 8 -49 11 -14 20 -32 20 -39 0 -7 11 -24 24 -37 21 -21 33 -24 78 -23 50 2 54 4 75 42 26 45 29 70 9 77 -8 3 -19 22 -26 41 -6 20 -16 36 -21 36 -6 0 -7 -4 -4 -10 3 -5 1 -10 -4 -10 -6 0 -11 5 -11 10 0 6 -7 10 -15 10 -8 0 -15 -4 -15 -10 0 -6 -9 -6 -26 0 -33 13 -46 12 -64 -3z"/>
<path d="M16676 4485 c-12 -33 -5 -66 19 -90 32 -32 40 -31 59 7 19 37 19 38 6 38 -5 0 -10 -7 -10 -15 0 -8 -4 -15 -10 -15 -9 0 -15 18 -22 65 -4 25 -33 32 -42 10z"/>
<path d="M15160 4468 c0 -9 5 -20 10 -23 13 -8 13 5 0 25 -8 13 -10 13 -10 -2z"/>
<path d="M15050 4450 c0 -5 5 -10 10 -10 6 0 10 5 10 10 0 6 -4 10 -10 10 -5 0 -10 -4 -10 -10z"/>
<path d="M16814 4445 c-4 -8 -10 -12 -15 -9 -5 3 -9 -2 -9 -10 0 -9 -4 -16 -10 -16 -5 0 -10 -7 -10 -15 0 -7 -8 -18 -17 -24 -15 -8 -16 -12 -5 -22 10 -11 12 -10 12 1 0 11 3 11 12 2 7 -7 20 -12 30 -12 10 0 18 -4 18 -9 0 -10 50 -2 67 11 6 5 16 22 22 39 9 27 7 31 -27 54 -42 29 -60 31 -68 10z"/>
<path d="M15196 4435 c4 -8 8 -15 10 -15 2 0 4 7 4 15 0 8 -4 15 -10 15 -5 0 -7 -7 -4 -15z"/>
<path d="M15331 4434 c0 -11 3 -14 6 -6 3 7 2 16 -1 19 -3 4 -6 -2 -5 -13z"/>
<path d="M16338 4402 l-41 -39 43 -42 c55 -53 94 -73 143 -75 30 0 44 5 58 23 27 33 24 60 -13 98 l-32 33 -21 -20 -22 -21 -32 30 c-18 17 -30 35 -26 41 15 24 -19 7 -57 -28z"/>
<path d="M15044 4407 c-6 -7 -9 -18 -6 -25 5 -17 49 -15 56 3 3 9 0 15 -10 15 -8 0 -12 5 -9 10 9 14 -18 12 -31 -3z"/>
<path d="M14995 4400 c-3 -5 -2 -10 4 -10 5 0 13 5 16 10 3 6 2 10 -4 10 -5 0 -13 -4 -16 -10z"/>
<path d="M15650 4399 c0 -5 5 -7 10 -4 6 3 10 8 10 11 0 2 -4 4 -10 4 -5 0 -10 -5 -10 -11z"/>
<path d="M15380 4385 c0 -8 5 -15 10 -15 6 0 10 7 10 15 0 8 -4 15 -10 15 -5 0 -10 -7 -10 -15z"/>
<path d="M15976 4344 c-13 -35 -6 -92 17 -120 43 -56 51 -60 114 -62 56 -1 63 1 78 25 17 25 17 27 -1 40 -11 8 -13 13 -5 13 11 0 11 3 1 14 -6 8 -18 12 -27 9 -12 -5 -14 -1 -8 15 4 14 2 22 -5 22 -6 0 -8 5 -4 11 4 8 0 9 -15 4 -11 -3 -21 -2 -21 3 0 6 -8 8 -19 5 -10 -3 -22 0 -25 5 -3 6 -15 8 -26 5 -14 -4 -20 0 -20 11 0 21 -26 21 -34 0z"/>
<path d="M18012 4343 c-25 -12 -36 -13 -45 -4 -17 17 -27 13 -26 -11 0 -13 3 -18 5 -12 3 8 18 5 47 -8 27 -14 42 -17 45 -9 2 6 11 11 19 11 10 0 13 -6 9 -16 -4 -11 -2 -15 8 -11 8 3 17 1 20 -6 3 -8 5 -7 5 2 1 15 -40 81 -49 81 -3 0 -20 -8 -38 -17z"/>
<path d="M15110 4311 c0 -12 6 -21 15 -21 8 0 15 4 15 9 0 5 -7 14 -15 21 -13 10 -15 9 -15 -9z"/>
<path d="M15550 4300 c0 -5 7 -10 16 -10 8 0 12 5 9 10 -3 6 -10 10 -16 10 -5 0 -9 -4 -9 -10z"/>
<path d="M15657 4301 c-17 -6 -17 -8 2 -30 12 -13 21 -22 22 -20 10 60 8 63 -24 50z"/>
<path d="M15930 4290 c0 -5 5 -10 10 -10 6 0 10 5 10 10 0 6 -4 10 -10 10 -5 0 -10 -4 -10 -10z"/>
<path d="M17746 4275 c-3 -9 -19 -21 -35 -26 -20 -7 -28 -15 -24 -25 4 -12 1 -13 -20 -3 -14 6 -28 20 -30 30 -3 11 -12 19 -21 19 -23 0 -3 -30 39 -58 23 -16 40 -21 62 -16 21 4 32 2 36 -8 5 -15 34 -17 55 -4 18 11 15 63 -5 86 -21 24 -49 26 -57 5z"/>
<path d="M15356 4250 c5 -41 10 -47 17 -21 3 11 -1 28 -8 38 -11 15 -12 13 -9 -17z"/>
<path d="M15865 4264 c9 -9 19 -13 23 -10 3 4 0 11 -8 16 -24 15 -33 11 -15 -6z"/>
<path d="M15560 4255 c-11 -13 -9 -15 13 -13 16 1 23 7 20 15 -7 17 -18 16 -33 -2z"/>
<path d="M15621 4254 c-16 -19 -11 -25 16 -18 13 4 20 11 16 20 -7 18 -14 17 -32 -2z"/>
<path d="M15683 4234 c-13 -14 -23 -32 -23 -40 0 -8 -6 -11 -16 -7 -12 4 -15 2 -12 -8 3 -8 15 -14 27 -13 14 0 18 -3 12 -9 -13 -13 9 -47 26 -40 9 4 11 0 7 -11 -4 -11 -1 -16 13 -16 10 0 24 -9 31 -20 7 -12 18 -18 24 -14 6 4 8 3 5 -2 -3 -6 -2 -16 2 -23 6 -9 18 -3 44 20 32 28 37 39 37 75 0 34 -6 50 -30 74 -16 16 -36 30 -45 30 -9 0 -18 7 -21 15 -4 8 -10 15 -16 15 -5 0 -6 -4 -3 -10 3 -5 1 -10 -4 -10 -6 0 -11 5 -11 10 0 18 -25 10 -47 -16z"/>
<path d="M15606 4207 c3 -10 9 -15 12 -12 3 3 0 11 -7 18 -10 9 -11 8 -5 -6z"/>
<path d="M15940 4210 c0 -5 5 -10 11 -10 5 0 7 5 4 10 -3 6 -8 10 -11 10 -2 0 -4 -4 -4 -10z"/>
<path d="M15558 4164 c-5 -39 0 -42 30 -13 25 22 23 34 -7 42 -16 4 -20 -2 -23 -29z"/>
<path d="M16970 4181 c0 -5 -9 -7 -20 -4 -24 6 -50 -13 -50 -37 0 -18 30 -50 47 -50 13 0 35 49 28 61 -4 5 1 9 9 9 10 0 13 6 10 15 -7 16 -24 21 -24 6z"/>
<path d="M17411 4169 c-41 -22 -67 -46 -59 -55 4 -3 25 -8 47 -11 66 -9 116 38 79 75 -15 15 -25 14 -67 -9z"/>
<path d="M15426 4134 c-3 -8 -1 -24 4 -35 12 -22 25 -26 17 -5 -3 8 -1 16 6 19 8 2 7 9 -5 20 -14 15 -17 15 -22 1z"/>
<path d="M15620 4138 c1 -19 29 -53 37 -45 8 9 -14 57 -27 57 -5 0 -10 -6 -10 -12z"/>
<path d="M17103 4113 c-7 -15 -13 -38 -14 -52 0 -15 -3 -20 -6 -13 -7 19 -19 14 -20 -9 -2 -16 2 -19 15 -14 9 4 25 9 34 12 25 7 42 56 28 82 -14 28 -22 26 -37 -6z"/>
<path d="M16584 4122 c-29 -19 -40 -82 -14 -82 4 0 10 -9 13 -20 7 -28 20 -25 40 9 35 59 7 124 -39 93z"/>
<path d="M15896 4085 c-3 -8 -1 -15 4 -15 6 0 10 7 10 15 0 8 -2 15 -4 15 -2 0 -6 -7 -10 -15z"/>
<path d="M16190 4080 c0 -5 7 -10 16 -10 8 0 12 5 9 10 -3 6 -10 10 -16 10 -5 0 -9 -4 -9 -10z"/>
<path d="M16265 4048 c-11 -7 -37 -27 -57 -46 -35 -32 -36 -36 -22 -57 19 -28 45 -23 66 13 9 15 26 37 37 49 12 12 18 29 15 37 -7 19 -12 19 -39 4z"/>
<path d="M15756 4005 c-3 -8 -1 -15 4 -15 6 0 10 7 10 15 0 8 -2 15 -4 15 -2 0 -6 -7 -10 -15z"/>
<path d="M16085 3971 c-6 -11 9 -23 19 -14 9 9 7 23 -3 23 -6 0 -12 -4 -16 -9z"/>
<path d="M22046 5451 c-3 -5 3 -11 13 -14 14 -3 18 -1 14 9 -6 16 -19 18 -27 5z"/>
<path d="M22203 4713 c-15 -5 -17 -23 -4 -23 5 0 11 7 15 15 3 8 4 15 3 14 -1 0 -8 -3 -14 -6z"/>
</g>
</svg>